<?xml version="1.0" encoding="utf-8" ?><svg xmlns="http://www.w3.org/2000/svg" xmlns:xlink="http://www.w3.org/1999/xlink" width="1024" height="1024" viewBox="0 0 1024 1024"><path fill="#D70000" transform="scale(3.93846 3.93846)" d="M128.574 0L131.656 0C133.788 1.29548 136.698 2.06864 139.005 3.60531C145.275 7.78058 151.632 11.8574 157.967 15.9369L203.247 45.134L224.072 58.5169C227.528 60.7141 231.044 62.9008 234.439 65.1675C236.933 66.833 239.874 68.9485 240.445 72.0791C241.471 77.6983 241.071 84.0325 241.066 89.7786L241.043 117.068L241.056 160.139C241.058 167.539 241.102 174.952 241.009 182.347C240.99 183.797 240.675 186.682 239.893 187.773C236.55 192.435 229.261 196.446 224.468 199.616L204.436 212.878L138.665 256.434C137.369 257.293 136.106 258.169 134.72 258.888C133.836 259.347 132.321 259.527 131.674 260L128.285 260C126.868 258.97 123.028 257.556 120.95 256.185L56.7002 213.58L35.7242 199.697C32.0361 197.26 28.3257 194.869 24.6807 192.356C20.6206 189.558 19.1331 186.983 18.9976 182.012C18.8227 175.597 18.912 169.182 18.9183 162.77L18.9337 126.882L18.916 92.2504C18.9133 85.983 18.5793 77.9421 19.4874 71.8947C20.1384 67.5588 31.8865 61.0096 35.4996 58.6662L60.0467 42.9006L103.841 14.6662C111.064 10.0484 118.317 4.78718 126.003 0.954359C126.865 0.52471 127.627 0.549705 128.574 0ZM25.6603 184.966C53.6361 203.003 81.1476 221.785 109.051 239.958L123.829 249.783C125.066 250.614 129.236 253.693 130.371 253.76L131.115 253.282C141.619 245.776 152.505 238.937 163.274 231.834L208.815 201.588L225.91 190.261C228.041 188.874 232.727 186.125 234.535 184.745C234.169 176.828 234.384 167.574 234.389 159.582L234.404 116.813L234.377 88.8181C234.368 84.8152 234.132 77.3023 234.503 73.6328C232.184 71.7165 227.351 68.7963 224.659 67.0691L207.714 56.1666L148.794 18.1885C146.212 16.5219 131.214 6.28288 129.543 6.20735C121.428 12.0416 110.762 18.4889 102.208 24.0173L49.9443 57.7183C42.4543 62.5386 34.8586 67.384 27.3989 72.2662C26.9599 72.5536 26.0211 73.2131 25.979 73.7202C25.6127 78.1338 25.7329 83.2195 25.7306 87.6486L25.7271 117.59L25.7249 163.739L25.7086 177.474C25.6929 179.631 25.5277 182.968 25.6603 184.966Z"/><path fill="#D70000" transform="scale(3.93846 3.93846)" d="M129.807 81.1178C131.072 81.5311 135.837 90.3106 136.92 92.1376L150.371 115.165L174.134 155.812C178.903 163.973 183.637 172.475 188.56 180.514C182.254 180.329 175.175 180.474 168.819 180.473L131.875 180.469C112.405 180.47 92.4126 180.714 72.9869 180.431L109.266 116.84L121.18 95.9522C124.014 90.9598 126.728 85.9613 129.807 81.1178Z"/><path fill="#D70000" transform="scale(3.93846 3.93846)" d="M75.2322 186.064C81.5907 186.29 88.6197 186.159 95.037 186.16L128.982 186.161L164.806 186.155C171.845 186.153 179.317 186.267 186.311 186.038C184.273 189.271 180.663 192.245 178.182 195.094C171.653 202.596 164.338 209.519 157.808 216.951C153.984 221.101 149.404 225.658 145.57 229.823C143.533 232.036 131.681 245.372 129.866 245.803C127.964 244.523 124.083 239.844 122.425 238.019L110.188 224.682L86.8371 199.312C85.3247 197.66 75.302 187.392 75.2322 186.064Z"/><path fill="#D70000" transform="scale(3.93846 3.93846)" d="M31.5315 92.8512C31.745 92.9175 32.187 93.0927 32.2813 93.3426C41.6755 118.239 50.6871 143.301 59.8863 168.276C60.5919 170.192 64.1246 178.897 63.8789 180.24L63.4936 180.413C53.3056 180.872 41.9597 180.324 31.3914 180.675C31.1785 172.26 31.4733 162.087 31.4733 153.528L31.5315 92.8512Z"/><path fill="#D70000" transform="scale(3.93846 3.93846)" d="M227.782 93.8357L228.218 94.0218C228.895 95.3048 228.559 172.68 228.586 180.436C225.704 180.684 221.528 180.505 218.516 180.495C211.668 180.442 204.82 180.451 197.973 180.521C197.76 180.464 197.634 180.332 197.442 180.191C197.306 178.799 199.793 172.965 200.373 171.304L217.78 121.772L224.138 103.996C224.911 101.78 226.854 95.6687 227.782 93.8357Z"/><path fill="#D70000" transform="scale(3.93846 3.93846)" d="M39.629 186.117C47.5004 186.298 59.3724 185.634 66.7231 186.279C69.1957 187.959 73.7355 193.416 76.0847 195.938C84.3097 204.771 92.464 213.761 100.643 222.639C103.369 225.598 106.022 228.644 108.831 231.504C109.652 232.341 109.822 232.276 109.824 233.212C107.769 232.216 102.915 228.9 100.874 227.562L84.5769 216.838C79.5816 213.532 39.5397 187.266 39.1482 186.339L39.629 186.117Z"/><path fill="#D70000" transform="scale(3.93846 3.93846)" d="M197.87 186.125C204.79 186.049 214.522 186.53 221.194 185.979C219.41 187.765 215.524 190.24 213.335 191.708L200.919 199.959C189.423 207.572 176.593 216.492 164.963 223.66C164.248 224.227 163.225 224.877 162.44 225.352C158.382 227.806 154.498 230.83 150.431 233.215C152.248 230.417 156.44 226.472 158.915 223.855L173.04 208.73L187.205 193.674C188.935 191.845 192.736 187.541 194.532 186.287L197.87 186.125Z"/></svg>