<?xml version="1.0" encoding="utf-8" ?><svg xmlns="http://www.w3.org/2000/svg" xmlns:xlink="http://www.w3.org/1999/xlink" width="1024" height="1024" viewBox="0 0 1024 1024"><path fill="#C45DFB" d="M158.926 571.753C157.993 557.527 158.576 536.456 158.522 521.794L158.181 430.287L158.177 348.184C158.199 332.836 158.182 317.457 158.679 302.119C158.958 293.508 160.247 290.169 167.996 285.683C183.657 276.615 199.469 267.828 215.165 258.822L317.833 199.275L441.215 126.967C461.109 115.392 480.834 103.517 500.959 92.3515C508.031 88.4277 515.956 88.3964 523.002 92.4286C552.558 109.342 581.703 126.992 611.069 144.219L765.162 234.311L829.352 271.724C839.291 277.5 850.505 283.622 859.922 290.2C862.892 292.275 863.412 297.73 863.657 301.151L863.681 302.702L863.86 388.566C863.876 400.897 863.322 419.908 864.004 431.715C863.509 447.802 864.16 464.126 863.945 480.234C863.905 483.229 863.874 486.561 864.028 489.539C863.878 494.684 863.841 499.832 863.916 504.979L863.975 519.451L863.783 617.698L863.571 646.442C863.509 651.94 863.627 659.988 862.679 665.17C861.445 668.858 860.78 669.927 857.784 672.408C837.498 684.658 817.136 696.782 796.7 708.779L653.659 794.364L572.539 843.052C554.841 853.827 537.3 864.881 519.312 875.169C516.244 876.924 514.194 877.15 510.775 877.66C502.05 876.282 481.538 862.492 472.85 857.179C454.896 847.696 434.087 833.429 415.752 823.116C413.489 821.193 396.481 811.509 392.922 809.368C377.914 800.345 362.581 790.934 347.418 782.202C334.812 774.061 320.844 765.893 307.887 758.206C280.203 740.755 251.72 724.166 223.775 707.122C217.133 703.071 209.502 698.022 202.632 694.589C199.762 691.553 173.295 677.107 167.993 674.244C163.308 671.075 162.111 669.938 160.256 664.62C158.904 650.537 158.614 622.133 159.058 607.665C158.642 600.063 158.472 579.023 158.926 571.753Z"/><path fill="#D97BFE" d="M158.926 571.753C160.477 558.346 158.175 542.789 159.32 529.307L159.807 529.443C161.231 536.306 161.844 610.199 159.962 616.139C159.849 614.272 159.902 608.652 159.058 607.665C158.642 600.063 158.472 579.023 158.926 571.753Z"/><path fill="#701AC5" d="M510.413 101.455C513.314 101.373 515.76 102.929 518.261 104.363C549.769 122.72 581.178 141.246 612.486 159.941L739.905 234.436L808.104 274.057C819.086 280.359 840.546 291.979 849.986 298.991C851.024 317.806 850.557 339.554 850.547 358.561L850.482 454.014L850.086 597.038C849.936 618.428 850.284 640.291 849.546 661.6C843.981 666.571 823.03 677.762 815.631 682.105L741.871 725.919L604.781 808.041C584.657 820.43 564.438 832.663 544.125 844.739C533.619 851.077 522.164 858.484 511.526 864.304C504.626 861.061 491.628 852.807 484.926 848.745L440.704 822.043L289.375 730.679L218.687 688.127C210.731 683.401 202.749 678.717 194.743 674.078C189.016 670.781 177.096 664.688 173.016 660.417C172.41 635.038 172.649 608.248 172.465 582.762C171.869 527.469 171.614 472.173 171.7 416.877C171.658 390.911 171.752 364.945 171.982 338.98C172.034 329.736 171.667 306.55 172.897 298.442C175.748 295.284 206.916 278.147 212.695 274.796L339.809 201.302L457.602 132.16L492.314 111.957C498.394 108.413 504.107 104.587 510.413 101.455Z"/><path fill="#FCD1FE" d="M511.391 110.028C519.815 114.385 531.576 121.587 540.214 126.462C570.71 143.808 601.022 161.476 631.145 179.461L711.023 226.365C730.788 237.632 750.459 249.062 770.035 260.654C784.068 268.09 797.751 277.273 811.73 284.892C821.619 290.282 831.336 297.105 841.366 302.147C842.33 398.422 841.879 494.706 840.012 590.968C839.898 601.952 839.895 643.191 838.893 657.16C838.869 657.493 837.537 658.544 837.168 658.79C833.536 661.299 828.595 663.469 825.713 665.517C815.049 673.093 803.757 679.457 792.507 686.193L717.594 731.306L583.344 812.011C560.512 825.681 534.842 842.153 511.742 854.886L276.481 713.485L213.645 674.886C208.132 671.485 198.211 663.78 192.512 661.721C189.558 659.517 187.42 658.648 184.072 655.863C188.415 645.383 197.193 648.229 199.541 643.252C198.407 643.446 197.7 643.506 196.554 643.62C190.96 647.79 185.713 648.867 183.266 654.708C181.847 565.065 180.935 475.415 180.531 385.761C180.451 366.159 180.632 346.556 181.075 326.958C181.18 322.316 181.392 306.437 182.507 302.577C186.455 298.714 225.99 275.547 231.062 273.275C241.025 266.555 256.279 258.528 266.961 252.306L342.236 208.403C380.634 185.469 419.218 162.846 457.984 140.536C474.777 130.827 494.524 119 511.391 110.028Z"/><defs><linearGradient id="gradient_0" gradientUnits="userSpaceOnUse" x1="513.88159" y1="606.21881" x2="516.72424" y2="853.44568"><stop offset="0" stop-color="#B958F3"/><stop offset="1" stop-color="#E081FF"/></linearGradient></defs><path fill="url(#gradient_0)" d="M266.49 622.732C271.031 620.189 273.443 618.003 278.578 616.462C281.078 615.712 285.638 615.759 286.744 614.877C286.719 611.815 287.523 610.523 287.217 608.072L284.355 608.043L284.128 607.735C291.917 606.516 312.154 624.445 317.786 630.265C326.173 638.932 334.008 650.362 344.455 657.85C347.337 659.916 352.032 666.064 355.787 669.043C356.944 669.213 358.243 669.385 359.067 670.366C363.473 675.607 366.85 681.454 370.873 686.998C373.281 691.056 377.894 693.792 380.778 697.193C386.519 703.963 394.494 709.886 400.328 716.2C410.6 727.317 420.304 738.631 431.09 749.284C433.019 751.19 434.474 753.542 436.345 755.496C443.02 761.423 450.455 766.051 454.926 774.072C454.974 774.156 460.751 778.865 461.469 779.526L483.937 800.081C489.13 804.898 495.556 812.497 500.372 817.77C502.48 820.079 505.05 821.945 507.284 824.254C507.388 825.397 507.488 826.126 507.692 827.256L508.915 827.962C514.926 828.493 517.315 821.931 521.13 819.246C529.884 814.002 534.718 806.59 541.65 799.951C552.196 789.851 561.681 778.69 571.931 768.449L657.57 682.836C669.449 670.962 681.945 659.72 692.897 646.902C701.666 636.638 711.901 626.835 722.068 617.913C725.097 615.256 728.201 610.629 731.643 608.685C736.551 605.912 739.76 614.865 742.875 615.582C751.059 617.017 767.19 629.694 775.507 633.238L776.285 632.945L776.158 632.633C774.663 631.935 773.123 631.29 772.143 629.946C769.882 626.846 765.246 619.612 765.741 615.863C768.941 616.684 779.808 624.673 785.309 626.73C786.521 628.09 787.424 628.5 789.193 628.672L788.396 627.931C800.475 633.688 812.348 642.562 823.752 649.795C826.509 651.544 833.895 653.754 834.889 654.696C834.522 656.109 834.515 656.351 834.844 657.773C836.08 658.862 835.367 658.46 837.168 658.79C833.536 661.299 828.595 663.469 825.713 665.517C815.049 673.093 803.757 679.457 792.507 686.193L717.594 731.306L583.344 812.011C560.512 825.681 534.842 842.153 511.742 854.886L276.481 713.485L213.645 674.886C208.132 671.485 198.211 663.78 192.512 661.721L193.152 660.224C192.314 655.515 192.796 655.24 196.942 652.512C211.265 643.085 225.577 633.646 240.004 624.378C240.391 624.44 240.779 624.502 241.166 624.564L240.427 625.627C244.269 625.382 252.677 618.762 256.157 617.032C261.326 614.462 267.817 610.791 273.178 608.97C270.299 613.788 268.824 618.548 266.49 622.732Z"/><path fill="#F297FE" d="M266.49 622.732C271.031 620.189 273.443 618.003 278.578 616.462C281.078 615.712 285.638 615.759 286.744 614.877C286.719 611.815 287.523 610.523 287.217 608.072L284.355 608.043L284.128 607.735C291.917 606.516 312.154 624.445 317.786 630.265C326.173 638.932 334.008 650.362 344.455 657.85C347.337 659.916 352.032 666.064 355.787 669.043C356.944 669.213 358.243 669.385 359.067 670.366C363.473 675.607 366.85 681.454 370.873 686.998C373.281 691.056 377.894 693.792 380.778 697.193C386.519 703.963 394.494 709.886 400.328 716.2C410.6 727.317 420.304 738.631 431.09 749.284C433.019 751.19 434.474 753.542 436.345 755.496C443.02 761.423 450.455 766.051 454.926 774.072C454.974 774.156 460.751 778.865 461.469 779.526L483.937 800.081C489.13 804.898 495.556 812.497 500.372 817.77C502.48 820.079 505.05 821.945 507.284 824.254C507.388 825.397 507.488 826.126 507.692 827.256L508.915 827.962C514.926 828.493 517.315 821.931 521.13 819.246C529.884 814.002 534.718 806.59 541.65 799.951C552.196 789.851 561.681 778.69 571.931 768.449L657.57 682.836C669.449 670.962 681.945 659.72 692.897 646.902C701.666 636.638 711.901 626.835 722.068 617.913C725.097 615.256 728.201 610.629 731.643 608.685C736.551 605.912 739.76 614.865 742.875 615.582L742.872 615.847C742.942 621.846 696.592 693.423 690.124 697.306C674.927 718.026 655.698 737.86 638.333 756.842C634.987 760.5 631.627 765.156 627.574 767.864L627.086 769.362C624.182 771.231 621.624 772.685 618.597 774.359C612.779 777.948 606.745 781.079 600.979 784.702C585.584 793.353 570.186 802.854 554.934 811.834C552.743 813.242 550.967 814.602 548.478 815.308C541.809 816.883 516.316 837.965 511.727 837.815C503.274 833.549 497.075 826.247 487.91 822.99C486.001 822.311 481.507 819.707 480.086 819.314L479.114 819.963C476.623 819.759 472.631 815.492 470.748 813.7L465.292 810.363C452.48 803.18 439.27 794.785 426.524 787.409C422.868 785.294 401.394 773.202 399.437 771.306C397.868 768.522 394.193 767.305 392.874 765.589C386.326 757.067 377.535 749.66 370.249 741.502C356.82 726.466 341.957 711.362 329.918 695.238L328.051 693.764C325.814 690.588 317.851 678.749 315.798 676.678C312.035 670.539 306.464 662.948 302.312 656.512C293.981 643.729 286.545 630.385 280.057 616.575C274.763 617.834 251.365 633.489 243.648 637.161C244.464 635.015 262.724 625.762 266.49 622.732Z"/><defs><linearGradient id="gradient_1" gradientUnits="userSpaceOnUse" x1="584.2998" y1="739.66302" x2="656.7002" y2="770.33698"><stop offset="0" stop-color="#6717B2"/><stop offset="1" stop-color="#8C29D5"/></linearGradient></defs><path fill="url(#gradient_1)" d="M662.197 699.583C666.387 701.358 684.827 698.322 690.124 697.306C674.927 718.026 655.698 737.86 638.333 756.842C634.987 760.5 631.627 765.156 627.574 767.864L627.086 769.362C624.182 771.231 621.624 772.685 618.597 774.359C612.779 777.948 606.745 781.079 600.979 784.702C585.584 793.353 570.186 802.854 554.934 811.834L553.969 810.078L662.197 699.583Z"/><path fill="#701AC5" d="M627.574 767.864L627.086 769.362C624.182 771.231 621.624 772.685 618.597 774.359L618.683 773.723C619.843 772.182 625.604 768.822 627.574 767.864Z"/><path fill="#8828D0" d="M329.918 695.238C335.755 696.374 356.16 701.568 360.336 699.199C369.529 709.535 380.953 720.698 390.706 730.796L437.817 779.582C441.37 783.191 464.029 805.259 465.728 807.966L465.292 810.363C452.48 803.18 439.27 794.785 426.524 787.409C422.868 785.294 401.394 773.202 399.437 771.306C397.868 768.522 394.193 767.305 392.874 765.589C386.326 757.067 377.535 749.66 370.249 741.502C356.82 726.466 341.957 711.362 329.918 695.238Z"/><path fill="#B248F1" d="M280.057 616.575C281.729 617.129 282.564 617.434 283.838 618.708C297.981 632.848 311.437 647.846 325.102 662.353L349.071 687.49C352.329 690.882 357.356 695.764 360.336 699.199C356.16 701.568 335.755 696.374 329.918 695.238L328.051 693.764C325.814 690.588 317.851 678.749 315.798 676.678C312.035 670.539 306.464 662.948 302.312 656.512C293.981 643.729 286.545 630.385 280.057 616.575Z"/><defs><linearGradient id="gradient_2" gradientUnits="userSpaceOnUse" x1="696.68335" y1="649.94928" x2="716.22565" y2="677.17657"><stop offset="0" stop-color="#8E2FDE"/><stop offset="1" stop-color="#B146F4"/></linearGradient></defs><path fill="url(#gradient_2)" d="M662.197 699.583C677.637 683.738 692.951 667.769 708.136 651.678C713.138 646.39 738.94 617.798 742.872 615.847C742.942 621.846 696.592 693.423 690.124 697.306C684.827 698.322 666.387 701.358 662.197 699.583Z"/><path fill="#D97BFE" d="M471.121 812.973C474.265 815.529 476.516 817.355 480.086 819.314L479.114 819.963C476.623 819.759 472.631 815.492 470.748 813.7L471.121 812.973Z"/><path fill="#570F9F" d="M548.478 815.308C549.801 813.754 552.388 811.526 553.969 810.078L554.934 811.834C552.743 813.242 550.967 814.602 548.478 815.308Z"/><path fill="#570F9F" d="M465.728 807.966C467.206 809.384 469.577 811.81 471.121 812.973L470.748 813.7L465.292 810.363L465.728 807.966Z"/><defs><linearGradient id="gradient_3" gradientUnits="userSpaceOnUse" x1="727.75629" y1="721.80792" x2="683.38715" y2="660.03815"><stop offset="0" stop-color="#3B0B7A"/><stop offset="1" stop-color="#6915B7"/></linearGradient></defs><path fill="url(#gradient_3)" d="M742.875 615.582C751.059 617.017 767.19 629.694 775.507 633.238C787.242 642.006 806.216 650.375 818.125 659.198L812.525 662.046C803.731 667.572 794.503 672.578 785.556 677.862C784.529 678.468 776.423 683.085 775.869 683.628C765.569 689.412 755.304 695.258 745.074 701.165C740.387 703.847 733.786 707.889 729.1 710.241C724.72 713.259 717.237 717.258 712.476 719.989L682.756 737.032C665.173 747.113 644.548 760.014 627.086 769.362L627.574 767.864C631.627 765.156 634.987 760.5 638.333 756.842C655.698 737.86 674.927 718.026 690.124 697.306C696.592 693.423 742.942 621.846 742.872 615.847L742.875 615.582Z"/><path fill="#180545" d="M799.987 668.107C803.081 666.68 809.206 661.716 812.525 662.046C803.731 667.572 794.503 672.578 785.556 677.862C784.529 678.468 776.423 683.085 775.869 683.628C765.569 689.412 755.304 695.258 745.074 701.165C740.387 703.847 733.786 707.889 729.1 710.241C729.189 709.922 729.278 709.604 729.367 709.285C745.971 698.656 779.904 679.736 795.181 670.843C796.325 670.568 798.835 668.828 799.987 668.107Z"/><path fill="#3D0C7C" d="M795.181 670.843C796.989 669.304 797.765 669.094 799.987 668.107C798.835 668.828 796.325 670.568 795.181 670.843Z"/><path fill="#701AC5" d="M740.545 678.496L741.042 678.684L740.787 679.386L741.008 679.948C738.514 682.122 702.735 693.819 697.21 695.531L696.776 695.122C701.431 693.386 703.471 691.409 707.376 689.771C714.997 686.575 723.453 684.488 731.17 681.429C734.095 680.269 737.481 679.165 740.545 678.496Z"/><defs><linearGradient id="gradient_4" gradientUnits="userSpaceOnUse" x1="297.25494" y1="722.96967" x2="340.91266" y2="663.2951"><stop offset="0" stop-color="#3D0B7E"/><stop offset="1" stop-color="#6E15BB"/></linearGradient></defs><path fill="url(#gradient_4)" d="M243.648 637.161C251.365 633.489 274.763 617.834 280.057 616.575C286.545 630.385 293.981 643.729 302.312 656.512C306.464 662.948 312.035 670.539 315.798 676.678C317.851 678.749 325.814 690.588 328.051 693.764L329.918 695.238C341.957 711.362 356.82 726.466 370.249 741.502C377.535 749.66 386.326 757.067 392.874 765.589C394.193 767.305 397.868 768.522 399.437 771.306C384.679 764.13 366.264 752.082 351.594 743.565L260.084 690.412C243.575 680.669 222.948 667.522 206.527 658.683C213.561 655.225 221.8 650.087 228.726 646.164C232.357 644.107 240.633 639.407 243.648 637.161Z"/><path fill="#8828D0" d="M315.798 676.678C317.851 678.749 325.814 690.588 328.051 693.764C322.059 693.333 298.348 684.473 292.322 681.841C292.277 681.84 293.97 681.863 293.911 681.853C297.569 682.46 298.892 680.426 302.712 679.31C306.401 678.233 310.228 678.033 314.166 678.042C315.388 678.712 316.392 679.264 317.179 679.695C316.323 678.358 315.594 677.837 315.798 676.678Z"/><path fill="#D97BFE" d="M775.869 683.628C775.339 685.563 775.243 685.255 772.962 686.563L631.653 768.559C629.295 769.918 626.3 772.411 624.394 773.422C619.49 776.022 614.268 778.347 609.341 781.023C606.639 782.491 604.496 784.467 601.728 785.174L600.979 784.702C606.745 781.079 612.779 777.948 618.597 774.359C621.624 772.685 624.182 771.231 627.086 769.362C644.548 760.014 665.173 747.113 682.756 737.032L712.476 719.989C717.237 717.258 724.72 713.259 729.1 710.241C733.786 707.889 740.387 703.847 745.074 701.165C755.304 695.258 765.569 689.412 775.869 683.628Z"/><defs><linearGradient id="gradient_5" gradientUnits="userSpaceOnUse" x1="808.39349" y1="336.83673" x2="543.92426" y2="349.8548"><stop offset="0" stop-color="#A33CEF"/><stop offset="1" stop-color="#FF8BFF"/></linearGradient></defs><path fill="url(#gradient_5)" d="M534.648 226.672C541.729 227.595 549.722 229.58 556.762 231.173C570.263 234.247 583.738 237.43 597.188 240.723C641.555 251.102 685.736 262.264 729.709 274.206C740.066 277.058 750.501 279.665 760.885 282.42C763.087 283.005 765.202 283.471 767.297 284.399C773 285.414 779.958 287.572 785.638 289.164C788.429 290.665 798.588 293.289 801.961 294.192C804.47 295.28 806.235 295.631 808.859 296.255C812.151 297.268 818.739 299.51 821.859 300.138C822.713 301.016 822.888 300.819 822.786 301.791C822.288 306.517 819.188 312.974 818.287 317.412C817.019 321.088 811.314 337.018 810.77 340.447C809.841 343.16 808.808 346.471 807.793 349.098C805.68 359.752 797.802 378.067 794.773 389.354C790.685 401.561 786.674 413.794 782.742 426.052C780.77 432.106 777.79 441.864 775.304 447.539L774.703 447.658C773.989 448.635 773.364 449.637 772.705 450.652L771.721 450.808C769.437 449.658 767.616 447.479 765.781 445.608C763.898 443.718 755.584 438.043 752.617 435.718C742.479 427.774 735.052 420.882 726.056 411.738C713.052 426.627 693.24 451.597 677.207 463.88C676.566 464.372 674.483 464.558 673.559 464.64C672.384 463.527 667.281 454.431 666.107 452.442L641.36 409.896L585.598 314.487C569.077 286.523 550.078 255.222 534.648 226.672Z"/><defs><linearGradient id="gradient_6" gradientUnits="userSpaceOnUse" x1="791.77051" y1="387.73279" x2="742.74622" y2="429.83505"><stop offset="0" stop-color="#781DC6"/><stop offset="1" stop-color="#A43BE9"/></linearGradient></defs><path fill="url(#gradient_6)" d="M768.135 359.998C773.406 365.797 778.621 371.646 783.781 377.545C786.841 381.013 791.398 386.457 794.773 389.354C790.685 401.561 786.674 413.794 782.742 426.052C780.77 432.106 777.79 441.864 775.304 447.539L774.703 447.658C773.989 448.635 773.364 449.637 772.705 450.652L771.721 450.808C769.437 449.658 767.616 447.479 765.781 445.608C763.898 443.718 755.584 438.043 752.617 435.718C742.479 427.774 735.052 420.882 726.056 411.738C729.056 408.675 735.182 400.763 738.288 397.009C748.452 384.847 758.403 372.508 768.135 359.998Z"/><path fill="#701AC5" d="M767.297 284.399C773 285.414 779.958 287.572 785.638 289.164C788.429 290.665 798.588 293.289 801.961 294.192C804.47 295.28 806.235 295.631 808.859 296.255C812.151 297.268 818.739 299.51 821.859 300.138C822.713 301.016 822.888 300.819 822.786 301.791C822.288 306.517 819.188 312.974 818.287 317.412C817.019 321.088 811.314 337.018 810.77 340.447C809.841 343.16 808.808 346.471 807.793 349.098C807.11 346.13 808.873 340.708 808.599 339.907C805.091 329.68 806.569 317.338 803.106 307.405C789.247 297.726 789.246 300.005 774.618 293.692L775.694 293.143C775.353 283.431 769.751 287.29 767.297 284.399Z"/><path fill="#F297FE" d="M600.077 302.531C602.424 303.772 605.363 302.388 607.941 304.022C609.952 305.298 613.03 310.067 615.162 311.638C620.924 315.884 628.205 321.597 633.712 325.703C636.072 327.463 641.261 324.324 646.774 328.131C647.851 330.229 648.488 331.477 648.746 333.889C649.439 340.346 648.603 339.317 653.941 341.291C655.004 342.594 655.47 342.924 656.114 344.451L655.161 343.603C653.545 342.087 652.597 341.023 650.495 340.83C649.896 341.435 649.351 342.063 648.823 342.731L648.328 342.511L648.719 340.622C641.424 338.222 631.5 335.148 625.285 330.629C619.7 326.568 614.927 320.553 608.428 317.427C606.583 316.54 598.837 315.601 598.017 314.908L601.157 314.798C596.889 311.095 597.685 307.142 600.077 302.531Z"/><path fill="#F297FE" d="M594.629 258.651C601.739 260.93 612.157 281.98 616.841 287.922C619.007 290.67 625.417 294.302 626.374 297.237C625.949 298.456 625.832 298.106 626.045 299.425L626.309 299.921C623.744 300.489 611.793 292.024 610.369 289.696C604.36 279.869 598.366 269.584 594.629 258.651Z"/><defs><linearGradient id="gradient_7" gradientUnits="userSpaceOnUse" x1="279.75256" y1="244.74344" x2="422.68896" y2="355.77368"><stop offset="0" stop-color="#9B33EF"/><stop offset="1" stop-color="#FF8CFF"/></linearGradient></defs><path fill="url(#gradient_7)" d="M283.869 276.149C325.968 265.119 368.312 253.038 410.713 243.318C419.231 241.365 479.286 226.467 484.038 227.494L484.914 228.317C483.681 232.846 474.625 250.09 472.039 255.125C458.401 281.675 443.867 308.217 428.653 333.913C420.334 347.964 411.893 364.277 403.127 377.881L402.814 378.054C399.261 378.864 391.571 394.822 390.006 398.572L389.295 398.936C386.358 397.372 382.318 393.745 379.654 391.517C370.439 383.714 361.683 375.384 353.431 366.569C348.59 361.383 343.719 355.562 338.835 350.54C333.557 355.687 299.076 388.162 297.749 390.92C292.948 395.776 288.042 400.528 283.034 405.171C271.521 389.978 261.721 371.557 250.283 356.61C246.038 359.536 241.789 364.195 238.238 368.008C236.197 370.722 228.117 378.857 225.523 380.809C222.978 374.734 220.599 366.252 218.043 359.573C217.505 356.133 209.366 332.676 207.879 328.525C206.015 322.716 203.821 316.75 201.782 310.977C201.65 309.957 199.403 301.81 198.977 300.006C206.521 297.925 226.506 292.812 232.969 290.179C241.29 288.294 249.242 285.659 257.699 283.862C260.399 282.137 279.347 278.668 283.869 276.149Z"/><defs><linearGradient id="gradient_8" gradientUnits="userSpaceOnUse" x1="197.51772" y1="307.62241" x2="237.92717" y2="321.70581"><stop offset="0" stop-color="#6614BD"/><stop offset="1" stop-color="#8D29DF"/></linearGradient></defs><path fill="url(#gradient_8)" d="M232.969 290.179C241.29 288.294 249.242 285.659 257.699 283.862C255.373 285.401 253.387 285.332 251.051 286.446C250.32 286.794 249.056 291.175 248.133 291.771C246.428 293.34 240.495 296.737 239.14 298.229C231.815 306.297 226.668 317.55 222.946 327.717C222.37 329.29 223.149 331.329 224.022 332.605C227.423 337.575 233.046 341.385 233.247 347.847L232.924 348.46C231.011 345.512 230.452 342.455 228.716 339.738C227.092 337.198 225.313 337.217 223.716 333.909C222.463 331.313 221.752 327.114 219.956 325.445C214.455 326.774 218.85 344.874 219.178 348.968C219.359 351.224 216.759 354.467 218.162 356.84C220.399 362.264 222.752 374.147 226.751 378.161C228.855 377.81 234.515 369.87 238.238 368.008C236.197 370.722 228.117 378.857 225.523 380.809C222.978 374.734 220.599 366.252 218.043 359.573C217.505 356.133 209.366 332.676 207.879 328.525C206.015 322.716 203.821 316.75 201.782 310.977C201.65 309.957 199.403 301.81 198.977 300.006C206.521 297.925 226.506 292.812 232.969 290.179Z"/><path fill="#F297FE" d="M407.441 290.237C412.658 290.104 428.75 288.887 431.84 293.284C431.418 299.814 409.371 300.822 404.549 300.834C408.201 306.041 409.092 307.13 415.5 309.261C436.126 316.119 415.132 329.172 409.749 339.241C410.081 340.8 410.139 340.286 409.91 341.766L409.405 340.967C406.297 342.31 400.309 351.566 399.516 355.294L400.023 355.302L400.044 355.832C396.375 358.065 380.92 369.206 378.842 369.106C378.101 367.089 376.431 361.015 376.738 359.105C377.284 358.881 379.115 358.042 379.299 357.581C381.051 353.191 380.901 345.322 382.928 341.321C385.588 336.069 394.478 329.538 399.798 327.515L401.972 323.328C401.081 320.4 400.659 319.096 400.636 315.977C396.795 311.208 395.798 310.046 393.968 304.245C396.011 295.276 396.36 290.643 407.441 290.237Z"/><defs><linearGradient id="gradient_9" gradientUnits="userSpaceOnUse" x1="143.79718" y1="539.23431" x2="247.43019" y2="484.11285"><stop offset="0" stop-color="#2B0767"/><stop offset="1" stop-color="#570EA0"/></linearGradient></defs><path fill="url(#gradient_9)" d="M231.062 273.275C234.551 273.325 270.714 250.619 278.15 248.036C278.17 249.276 278.183 248.997 278.534 250.229C284.449 255.75 278.245 256.223 274.358 259.58L275.306 259.882L276.274 260.191C274.655 260.842 272.014 261.721 270.777 262.807C275.033 262.442 274.944 259.941 278.888 261.518C281.261 265.157 279.405 264.126 282.639 266.043C277.389 270.916 242.088 275.451 237.019 281.01C240.374 280.785 241.754 277.4 245.028 279.386C248.467 286.602 237.947 288.204 232.905 289.466L232.969 290.179C226.506 292.812 206.521 297.925 198.977 300.006C199.403 301.81 201.65 309.957 201.782 310.977C203.821 316.75 206.015 322.716 207.879 328.525C209.366 332.676 217.505 356.133 218.043 359.573C214.003 356.679 213.203 341.618 208.501 340.201C206.476 342.258 206.66 344.519 208.207 346.782C208.533 351.283 212.901 359.967 213.872 364.832C216.412 369.013 220.36 383.797 222.224 389.094C222.849 390.873 223.499 396.213 224.449 399.019L260.61 506.023C266.63 523.381 273.089 540.159 278.264 557.896C282.673 573.008 288.761 582.997 284.817 599.534C283.442 601.398 276.14 602.567 273.748 604.1C273.942 603.976 273.97 605.412 273.331 606.624C275.586 606.93 281.091 604.492 283.142 603.427L283.463 603.779C279.999 606.175 277.797 605.631 274.997 608.738L273.178 608.97C267.817 610.791 261.326 614.462 256.157 617.032C252.677 618.762 244.269 625.382 240.427 625.627L241.166 624.564C240.779 624.502 240.391 624.44 240.004 624.378C225.577 633.646 211.265 643.085 196.942 652.512C192.796 655.24 192.314 655.515 193.152 660.224L192.512 661.721C189.558 659.517 187.42 658.648 184.072 655.863C188.415 645.383 197.193 648.229 199.541 643.252C198.407 643.446 197.7 643.506 196.554 643.62C190.96 647.79 185.713 648.867 183.266 654.708C181.847 565.065 180.935 475.415 180.531 385.761C180.451 366.159 180.632 346.556 181.075 326.958C181.18 322.316 181.392 306.437 182.507 302.577C186.455 298.714 225.99 275.547 231.062 273.275Z"/><path fill="#C45DFB" d="M231.062 273.275C234.551 273.325 270.714 250.619 278.15 248.036C278.17 249.276 278.183 248.997 278.534 250.229C284.449 255.75 278.245 256.223 274.358 259.58L275.306 259.882L276.274 260.191C274.655 260.842 272.014 261.721 270.777 262.807C275.033 262.442 274.944 259.941 278.888 261.518C281.261 265.157 279.405 264.126 282.639 266.043C277.389 270.916 242.088 275.451 237.019 281.01C240.374 280.785 241.754 277.4 245.028 279.386C248.467 286.602 237.947 288.204 232.905 289.466L232.969 290.179C226.506 292.812 206.521 297.925 198.977 300.006C199.403 301.81 201.65 309.957 201.782 310.977C203.821 316.75 206.015 322.716 207.879 328.525L206.44 329.164C206.227 331.693 209.097 333.268 205.625 336.374L204.556 336.462C203.524 335.414 203.652 335.246 203.296 333.763C202.615 336.104 205.922 346.741 207.322 348.895C204.949 350.336 204.151 351.485 201.583 350.317C199.804 347.876 201.222 347.784 199.616 345.791L198.787 346.006C199.819 349.568 204.449 365.677 205.767 368.036C207.498 375.207 210.534 383.623 212.734 390.893L211.519 391.151C210.504 389.6 210.548 389.501 210.043 387.788C209.884 391.243 210.63 391.319 211.702 394.724L211.917 395.453C207.622 394.904 204.967 394.34 200.995 392.397L200.411 393.246C199.241 392.722 198.187 392.175 197.047 391.597L196.799 392.199C195.721 390.987 195.557 390.681 193.962 390.116C193.265 390.378 192.781 390.385 192.602 391.016C190.315 399.105 193.162 433.305 191.087 438.825C190.585 456.362 191.632 477.798 191.903 495.699L193.121 583.464C193.431 601.6 194.028 619.57 194.051 637.732C195.779 636.726 201.872 633.321 203.103 632.303C205.965 630.887 208.652 629.162 211.698 627.688C217.922 623.731 225.971 619.527 232.531 615.822C233.289 615.547 238.437 612.72 239.517 612.182C243.493 611.535 244.889 609.627 248.899 608.319L253.882 605.68C261.077 610.518 270.213 603.518 277.642 601.696C279.934 601.134 282.634 600.365 284.817 599.534C283.442 601.398 276.14 602.567 273.748 604.1C273.942 603.976 273.97 605.412 273.331 606.624C275.586 606.93 281.091 604.492 283.142 603.427L283.463 603.779C279.999 606.175 277.797 605.631 274.997 608.738L273.178 608.97C267.817 610.791 261.326 614.462 256.157 617.032C252.677 618.762 244.269 625.382 240.427 625.627L241.166 624.564C240.779 624.502 240.391 624.44 240.004 624.378C225.577 633.646 211.265 643.085 196.942 652.512C192.796 655.24 192.314 655.515 193.152 660.224L192.512 661.721C189.558 659.517 187.42 658.648 184.072 655.863C188.415 645.383 197.193 648.229 199.541 643.252C198.407 643.446 197.7 643.506 196.554 643.62C190.96 647.79 185.713 648.867 183.266 654.708C181.847 565.065 180.935 475.415 180.531 385.761C180.451 366.159 180.632 346.556 181.075 326.958C181.18 322.316 181.392 306.437 182.507 302.577C186.455 298.714 225.99 275.547 231.062 273.275Z"/><path fill="#3D0C7C" d="M191.424 323.534C193.322 328.767 196.964 342.35 198.787 346.006C199.819 349.568 204.449 365.677 205.767 368.036C207.498 375.207 210.534 383.623 212.734 390.893L211.519 391.151C210.504 389.6 210.548 389.501 210.043 387.788C209.884 391.243 210.63 391.319 211.702 394.724L211.917 395.453C207.622 394.904 204.967 394.34 200.995 392.397L200.411 393.246C199.241 392.722 198.187 392.175 197.047 391.597L196.799 392.199C195.721 390.987 195.557 390.681 193.962 390.116C193.265 390.378 192.781 390.385 192.602 391.016C190.315 399.105 193.162 433.305 191.087 438.825C190.784 415.602 190.139 391.256 190.344 368.122C189.885 362.547 189.509 339.137 189.963 334.311C191.697 330.435 189.79 326.488 191.424 323.534Z"/><path fill="#701AC5" d="M197.047 391.597L196.111 389.937C196.53 388.552 196.131 389.107 197.454 388.297C200.329 388.095 206.767 391.402 209.193 392.944L211.702 394.724L211.917 395.453C207.622 394.904 204.967 394.34 200.995 392.397L200.411 393.246C199.241 392.722 198.187 392.175 197.047 391.597Z"/><path fill="#D97BFE" d="M284.817 599.534C283.442 601.398 276.14 602.567 273.748 604.1C273.942 603.976 273.97 605.412 273.331 606.624C275.586 606.93 281.091 604.492 283.142 603.427L283.463 603.779C279.999 606.175 277.797 605.631 274.997 608.738L273.178 608.97C267.817 610.791 261.326 614.462 256.157 617.032C252.677 618.762 244.269 625.382 240.427 625.627L241.166 624.564C244.191 624.077 266.253 610.573 270.371 607.784C271.629 606.932 271.484 606.508 271.57 605.473C265.582 606.439 252.789 614.266 248.828 615.429C249.919 613.999 250.971 613.487 252.478 612.522L252.113 612.576L252.018 611.942L251.584 612.815L251.004 611.752L245.894 610.811C244.945 611.825 213.167 627.706 211.698 627.688C217.922 623.731 225.971 619.527 232.531 615.822C233.289 615.547 238.437 612.72 239.517 612.182C243.493 611.535 244.889 609.627 248.899 608.319L253.882 605.68C261.077 610.518 270.213 603.518 277.642 601.696C279.934 601.134 282.634 600.365 284.817 599.534Z"/><path fill="#D97BFE" d="M201.782 310.977C203.821 316.75 206.015 322.716 207.879 328.525L206.44 329.164L205.886 329.134L206.249 327.986L205.654 327.651C204.792 323.27 201.45 314.766 201.782 310.977Z"/><path fill="#180545" d="M190.012 318.036C190.54 319.864 190.972 321.688 191.424 323.534C189.79 326.488 191.697 330.435 189.963 334.311C189.628 329.242 189.81 323.107 190.012 318.036Z"/><defs><linearGradient id="gradient_10" gradientUnits="userSpaceOnUse" x1="221.85536" y1="485.12122" x2="263.22717" y2="476.31863"><stop offset="0" stop-color="#E994FD"/><stop offset="1" stop-color="#FFCDFF"/></linearGradient></defs><path fill="url(#gradient_10)" d="M207.879 328.525C209.366 332.676 217.505 356.133 218.043 359.573C214.003 356.679 213.203 341.618 208.501 340.201C206.476 342.258 206.66 344.519 208.207 346.782C208.533 351.283 212.901 359.967 213.872 364.832C216.412 369.013 220.36 383.797 222.224 389.094C222.849 390.873 223.499 396.213 224.449 399.019L260.61 506.023C266.63 523.381 273.089 540.159 278.264 557.896C282.673 573.008 288.761 582.997 284.817 599.534C282.634 600.365 279.934 601.134 277.642 601.696C270.213 603.518 261.077 610.518 253.882 605.68L248.899 608.319C244.889 609.627 243.493 611.535 239.517 612.182C249.041 606.092 268.922 596.528 276.908 590.076C275.137 585.232 273.773 580.239 271.704 575.543C265.863 558.526 260.847 541.38 254.96 524.186L243.862 490.814C242.234 485.982 233.85 462.395 234.691 458.925C233.521 453.913 229.903 443.794 228.2 438.512C228.055 442.689 230.111 446.488 230.894 450.337C230.716 452.883 231.384 454.022 230.865 456.25C225.535 451.801 214.042 435.662 208.176 428.997L197.659 418.297C198.155 412.508 200.448 407.983 199.881 402.281C199.62 399.65 200.037 398.14 200.2 395.526C200.888 394.642 201.156 394.972 202.084 395.194L201.818 394.543L201.745 394.956C201.506 393.757 201.67 394.324 200.411 393.246L200.995 392.397C204.967 394.34 207.622 394.904 211.917 395.453L211.702 394.724C210.63 391.319 209.884 391.243 210.043 387.788C210.548 389.501 210.504 389.6 211.519 391.151L212.734 390.893C210.534 383.623 207.498 375.207 205.767 368.036C204.449 365.677 199.819 349.568 198.787 346.006L199.616 345.791C201.222 347.784 199.804 347.876 201.583 350.317C204.151 351.485 204.949 350.336 207.322 348.895C205.922 346.741 202.615 336.104 203.296 333.763C203.652 335.246 203.524 335.414 204.556 336.462L205.625 336.374C209.097 333.268 206.227 331.693 206.44 329.164L207.879 328.525Z"/><defs><linearGradient id="gradient_11" gradientUnits="userSpaceOnUse" x1="190.90283" y1="409.1098" x2="241.05934" y2="438.09033"><stop offset="0" stop-color="#6D17BB"/><stop offset="1" stop-color="#9C37DE"/></linearGradient></defs><path fill="url(#gradient_11)" d="M200.411 393.246L200.995 392.397C204.967 394.34 207.622 394.904 211.917 395.453C215.317 400.015 215.805 405.737 218.636 409.156C219.708 411.711 227.512 435.311 228.2 438.512C228.055 442.689 230.111 446.488 230.894 450.337C230.716 452.883 231.384 454.022 230.865 456.25C225.535 451.801 214.042 435.662 208.176 428.997L197.659 418.297C198.155 412.508 200.448 407.983 199.881 402.281C199.62 399.65 200.037 398.14 200.2 395.526C200.888 394.642 201.156 394.972 202.084 395.194L201.818 394.543L201.745 394.956C201.506 393.757 201.67 394.324 200.411 393.246Z"/><path fill="#D97BFE" d="M207.879 328.525C209.366 332.676 217.505 356.133 218.043 359.573C214.003 356.679 213.203 341.618 208.501 340.201C206.476 342.258 206.66 344.519 208.207 346.782C208.533 351.283 212.901 359.967 213.872 364.832C214.659 368.861 217.737 377.161 217.233 380.367C215.71 370.593 214.194 367.037 205.954 360.706C204.804 359.822 204.721 359.941 203.679 358.793C204.276 360.732 206.229 366.253 205.905 367.882L205.767 368.036C204.449 365.677 199.819 349.568 198.787 346.006L199.616 345.791C201.222 347.784 199.804 347.876 201.583 350.317C204.151 351.485 204.949 350.336 207.322 348.895C205.922 346.741 202.615 336.104 203.296 333.763C203.652 335.246 203.524 335.414 204.556 336.462L205.625 336.374C209.097 333.268 206.227 331.693 206.44 329.164L207.879 328.525Z"/><path fill="#3D0C7C" d="M234.691 458.925L263.687 547.136C266.2 554.871 268.767 562.588 271.386 570.287C273.212 575.589 277.185 584.947 276.908 590.076C275.137 585.232 273.773 580.239 271.704 575.543C265.863 558.526 260.847 541.38 254.96 524.186L243.862 490.814C242.234 485.982 233.85 462.395 234.691 458.925Z"/><path fill="#570F9F" d="M211.702 394.724C210.63 391.319 209.884 391.243 210.043 387.788C210.548 389.501 210.504 389.6 211.519 391.151L212.734 390.893C214.772 396.258 217.033 403.559 218.636 409.156C215.805 405.737 215.317 400.015 211.917 395.453L211.702 394.724Z"/><path fill="#570F9F" d="M228.2 438.512C229.903 443.794 233.521 453.913 234.691 458.925C233.85 462.395 242.234 485.982 243.862 490.814L254.96 524.186C260.847 541.38 265.863 558.526 271.704 575.543L270.947 575.795C269.192 575.214 265.102 572.361 263.069 571.348C256.552 568.099 250.023 564.694 243.466 561.543C230.759 555.437 218.185 551.208 205.708 544.501C205.742 540.154 210.338 525.281 211.617 520.075C215.505 504.256 219.147 487.843 223.886 472.262C225.671 466.391 228.613 460.98 232.132 455.982C231.971 453.339 231.786 452.851 230.894 450.337C230.111 446.488 228.055 442.689 228.2 438.512Z"/><path fill="#701AC5" d="M227.453 503.314C232.702 503.039 234.402 504.346 235.484 509.846C235.822 511.564 236.283 510.11 236.277 512.549C232.54 516.19 228.654 506.048 227.453 503.314Z"/><defs><linearGradient id="gradient_12" gradientUnits="userSpaceOnUse" x1="197.86433" y1="485.40515" x2="224.42184" y2="489.66431"><stop offset="0" stop-color="#560FA1"/><stop offset="1" stop-color="#7C1CCA"/></linearGradient></defs><path fill="url(#gradient_12)" d="M208.176 428.997C214.042 435.662 225.535 451.801 230.865 456.25C231.384 454.022 230.716 452.883 230.894 450.337C231.786 452.851 231.971 453.339 232.132 455.982C228.613 460.98 225.671 466.391 223.886 472.262C219.147 487.843 215.505 504.256 211.617 520.075C210.338 525.281 205.742 540.154 205.708 544.501C199.313 539.967 191.964 530.496 193.988 522.169C195.357 524.225 193.193 526.445 195.556 529.204C195.902 517.551 197.157 509.84 198.985 498.322C200.941 485.998 200.588 472.209 202.154 459.777C202.89 453.933 204.866 448.136 205.825 442.317C206.46 438.17 206.502 432.629 208.176 428.997Z"/><path fill="#570F9F" d="M197.659 418.297C195.79 416.735 195.992 417.352 195.313 415.349C196.31 411.613 199.143 397.618 200.2 395.526C200.037 398.14 199.62 399.65 199.881 402.281C200.448 407.983 198.155 412.508 197.659 418.297Z"/><path fill="#180545" d="M203.103 632.303L203.381 631.308C207.614 628.411 228.397 616.144 232.531 615.822C225.971 619.527 217.922 623.731 211.698 627.688C208.652 629.162 205.965 630.887 203.103 632.303Z"/><path fill="#570F9F" d="M240.906 579.688C245.012 582.888 248.656 584.432 253.044 587.072C256.255 589.004 255.712 590.21 256.464 593.249L257.501 593.187L256.796 593.898L256.108 594.227C251.933 593.622 243.235 588.544 239.588 586.183L240.906 579.688Z"/><path fill="#3D0C7C" d="M209.594 591.115L210.183 591.601C210.862 593.61 210.665 596.284 210.665 598.48C212.411 599.786 213.543 600.077 213.056 602.27C211.55 603.608 210.474 603.831 208.543 604.553C203.376 599.266 199.987 594.453 209.594 591.115Z"/><defs><linearGradient id="gradient_13" gradientUnits="userSpaceOnUse" x1="629.09045" y1="189.69157" x2="602.40363" y2="233.95036"><stop offset="0" stop-color="#520D9F"/><stop offset="1" stop-color="#9D34E9"/></linearGradient></defs><path fill="url(#gradient_13)" d="M511.391 110.028C519.815 114.385 531.576 121.587 540.214 126.462C570.71 143.808 601.022 161.476 631.145 179.461L711.023 226.365C730.788 237.632 750.459 249.062 770.035 260.654L769.454 261.142C764.902 258.583 755.418 262.568 748.552 260.1C744.359 258.046 740.1 255.468 736.039 253.118L735.307 254.563C734.17 254.813 733.03 255.046 731.888 255.264C715.854 252.041 694.766 243.683 678.474 240.939C675.686 239.612 652.715 234.205 647.994 233.065L596.765 220.419C586.404 217.943 575.862 215.916 565.591 213.102L538.034 206.804C532.878 205.621 526.147 204.3 521.267 202.552L521.109 197.665C520.159 184.19 521.943 169.348 520.33 155.753C519.903 152.147 521.479 139.537 519.945 137.354C518.445 138.184 517.831 138.122 516.376 138.866C513.995 143.128 516.382 151.79 515.294 155.491C514.304 149.929 514.276 131.752 513.114 128.746C511.795 128.288 510.462 127.862 509.189 127.285C508.845 131.956 507.846 154.641 506.986 157.588C506.928 154.651 507.621 139.415 506.891 138.084C505.031 136.935 504.357 135.864 502.451 134.543C501.821 135.333 500.618 154.216 500.078 157.55C500.034 163.345 500.199 170.721 499.927 176.377C498.974 185.829 500.687 186.264 492.932 192.718C487.226 197.467 482.598 200.797 476.202 204.858C472.814 207.008 468.314 207.742 466.863 209.7C459.015 212.052 448.47 213.748 440.184 215.767C416.23 221.454 392.349 227.439 368.544 233.721C358.758 235.807 346.77 239.444 336.942 242.168C321.028 246.444 305.183 250.978 289.416 255.768C285.209 257.087 280.279 258.493 276.274 260.191L275.306 259.882L274.358 259.58C278.245 256.223 284.449 255.75 278.534 250.229C278.183 248.997 278.17 249.276 278.15 248.036C270.714 250.619 234.551 273.325 231.062 273.275C241.025 266.555 256.279 258.528 266.961 252.306L342.236 208.403C380.634 185.469 419.218 162.846 457.984 140.536C474.777 130.827 494.524 119 511.391 110.028Z"/><defs><linearGradient id="gradient_14" gradientUnits="userSpaceOnUse" x1="390.03546" y1="187.15387" x2="423.44269" y2="238.9474"><stop offset="0" stop-color="#450992"/><stop offset="1" stop-color="#932DE0"/></linearGradient></defs><path fill="url(#gradient_14)" d="M500.066 127.462C500.115 137.504 499.899 147.484 500.078 157.55C500.034 163.345 500.199 170.721 499.927 176.377C498.974 185.829 500.687 186.264 492.932 192.718C487.226 197.467 482.598 200.797 476.202 204.858C472.814 207.008 468.314 207.742 466.863 209.7C459.015 212.052 448.47 213.748 440.184 215.767C416.23 221.454 392.349 227.439 368.544 233.721C358.758 235.807 346.77 239.444 336.942 242.168C321.028 246.444 305.183 250.978 289.416 255.768C288.148 255.218 288.087 255.319 287.278 254.238C288.373 253.349 289.004 253.08 289.352 251.647C290.409 250.689 303.948 242.768 306.081 241.502C321.037 232.537 336.064 223.69 351.16 214.963C385.939 194.183 420.842 173.609 455.865 153.244C469.727 145.162 486.268 134.796 500.066 127.462Z"/><path fill="#D97BFE" d="M511.391 110.028C519.815 114.385 531.576 121.587 540.214 126.462C570.71 143.808 601.022 161.476 631.145 179.461L711.023 226.365C730.788 237.632 750.459 249.062 770.035 260.654L769.454 261.142C764.902 258.583 755.418 262.568 748.552 260.1C744.359 258.046 740.1 255.468 736.039 253.118C723.612 245.168 708.293 236.783 695.377 229.161L624.893 187.41L585.351 164.247C580.291 161.264 569.582 154.482 564.604 152.187C559.176 148.505 550.768 144.157 544.987 140.557C541.529 138.404 531.858 132.536 528.816 131.262C526.563 129.392 524.041 128.093 521.491 126.663C521.412 145.126 521.819 164.431 521.455 182.775C521.41 187.284 521.52 193.283 521.109 197.665C520.159 184.19 521.943 169.348 520.33 155.753C519.903 152.147 521.479 139.537 519.945 137.354C518.445 138.184 517.831 138.122 516.376 138.866C513.995 143.128 516.382 151.79 515.294 155.491C514.304 149.929 514.276 131.752 513.114 128.746C511.795 128.288 510.462 127.862 509.189 127.285C508.845 131.956 507.846 154.641 506.986 157.588C506.928 154.651 507.621 139.415 506.891 138.084C505.031 136.935 504.357 135.864 502.451 134.543C501.821 135.333 500.618 154.216 500.078 157.55C499.899 147.484 500.115 137.504 500.066 127.462C486.268 134.796 469.727 145.162 455.865 153.244C420.842 173.609 385.939 194.183 351.16 214.963C336.064 223.69 321.037 232.537 306.081 241.502C303.948 242.768 290.409 250.689 289.352 251.647C289.004 253.08 288.373 253.349 287.278 254.238C288.087 255.319 288.148 255.218 289.416 255.768C285.209 257.087 280.279 258.493 276.274 260.191L275.306 259.882L274.358 259.58C278.245 256.223 284.449 255.75 278.534 250.229C278.183 248.997 278.17 249.276 278.15 248.036C270.714 250.619 234.551 273.325 231.062 273.275C241.025 266.555 256.279 258.528 266.961 252.306L342.236 208.403C380.634 185.469 419.218 162.846 457.984 140.536C474.777 130.827 494.524 119 511.391 110.028Z"/><path fill="#3D0C7C" d="M289.352 251.647C289.004 253.08 288.373 253.349 287.278 254.238C288.087 255.319 288.148 255.218 289.416 255.768C285.209 257.087 280.279 258.493 276.274 260.191L275.306 259.882C278.199 257.806 286.136 253.429 289.352 251.647Z"/><path fill="#B248F1" d="M521.455 182.775C522.629 181.508 521.945 181.778 523.367 181.464C524.642 182.781 526.772 183.561 527.784 184.646C535.373 192.782 544.644 196.952 554.06 202.361C554.757 202.762 565.426 211.67 565.845 212.274L565.591 213.102L538.034 206.804C532.878 205.621 526.147 204.3 521.267 202.552L521.109 197.665C521.52 193.283 521.41 187.284 521.455 182.775Z"/><path fill="#3D0C7C" d="M528.816 131.262C531.858 132.536 541.529 138.404 544.987 140.557C550.768 144.157 559.176 148.505 564.604 152.187C561.14 152.352 533.42 135.236 528.595 131.848L528.816 131.262Z"/><path fill="#8828D0" d="M572.295 170.387C574.914 170.79 576.258 171.269 578.753 172.064C576.829 178.169 576.02 180.523 570.924 184.775C568.948 184.839 565.887 184.332 563.838 184.064C565.95 179.164 569.201 174.71 572.295 170.387Z"/><defs><linearGradient id="gradient_15" gradientUnits="userSpaceOnUse" x1="864.96112" y1="488.09048" x2="780.83777" y2="466.40924"><stop offset="0" stop-color="#300A6B"/><stop offset="1" stop-color="#5E13A6"/></linearGradient></defs><path fill="url(#gradient_15)" d="M748.552 260.1C755.418 262.568 764.902 258.583 769.454 261.142L770.035 260.654C784.068 268.09 797.751 277.273 811.73 284.892C821.619 290.282 831.336 297.105 841.366 302.147C842.33 398.422 841.879 494.706 840.012 590.968C839.898 601.952 839.895 643.191 838.893 657.16C838.869 657.493 837.537 658.544 837.168 658.79C835.367 658.46 836.08 658.862 834.844 657.773C834.515 656.351 834.522 656.109 834.889 654.696C833.895 653.754 826.509 651.544 823.752 649.795C812.348 642.562 800.475 633.688 788.396 627.931L789.193 628.672C787.424 628.5 786.521 628.09 785.309 626.73C782.142 623.59 767.4 616.956 766.52 613.577C770.425 613.146 772.416 614.727 775.976 616.58C780.444 619.036 787.092 622.948 791.626 624.823L791.848 624.455L790.609 623.715C794.589 621.647 796.126 620.348 800.383 622.029L800.532 621.378C794.9 617.559 777.716 607.874 771.468 604.675C767.64 601.472 754.493 595.609 748.121 590.579C750.945 578.529 757.992 558.715 761.928 546.172L787.359 463.602C787.568 462.181 790.743 451.702 791.387 449.772C793.825 442.465 796.086 432.692 798.831 425.723C799.497 422.532 801.978 415.272 803.154 412.281C803.395 409.879 808.224 394.725 809.244 390.928L808.889 390.446C809.689 385.743 812.62 378.544 813.764 373.643C815.119 367.843 815.747 363.341 817.797 357.755C818.79 355.358 820.685 350.044 820.929 347.583C816.676 342.132 822.774 331.508 822.037 326.077C821.888 327.381 822.003 327.393 821.161 328.36C816.028 323.967 818.976 321.911 818.287 317.412C819.188 312.974 822.288 306.517 822.786 301.791C822.888 300.819 822.713 301.016 821.859 300.138C818.739 299.51 812.151 297.268 808.859 296.255C806.235 295.631 804.47 295.28 801.961 294.192L802.109 293.446C800.435 292.593 796.146 290.641 795.092 289.419C795.572 288.53 796.167 287.767 796.802 286.982C793.092 284.26 777.171 277.082 771.787 275.899C768.137 275.098 759.909 272.81 757.098 271.19C756.812 270.075 757.885 267.649 758.334 266.304C755.518 263.832 751.15 262.835 748.271 260.644L748.552 260.1Z"/><path fill="#C45DFB" d="M748.552 260.1C755.418 262.568 764.902 258.583 769.454 261.142L770.035 260.654C784.068 268.09 797.751 277.273 811.73 284.892C821.619 290.282 831.336 297.105 841.366 302.147C842.33 398.422 841.879 494.706 840.012 590.968C839.898 601.952 839.895 643.191 838.893 657.16C838.869 657.493 837.537 658.544 837.168 658.79C835.367 658.46 836.08 658.862 834.844 657.773C834.515 656.351 834.522 656.109 834.889 654.696C833.895 653.754 826.509 651.544 823.752 649.795C812.348 642.562 800.475 633.688 788.396 627.931L789.193 628.672C787.424 628.5 786.521 628.09 785.309 626.73C782.142 623.59 767.4 616.956 766.52 613.577C770.425 613.146 772.416 614.727 775.976 616.58C780.444 619.036 787.092 622.948 791.626 624.823L791.848 624.455L790.609 623.715C794.589 621.647 796.126 620.348 800.383 622.029L800.532 621.378C805.604 623.911 819.144 632.727 822.933 633.964C824.94 635.436 826.302 636.408 828.768 636.958C829 636.692 829.457 606.252 829.548 603.2C829.362 581.911 830.088 559.38 830.33 537.989L831.909 385.183C832.03 380.727 832.095 376.269 832.102 371.812C831.699 359.686 832.63 346.364 832.126 334.097C831.968 330.236 832.387 324.016 831.674 320.46L831.264 320.365L830.671 322.403C830.137 323.947 828.821 328.079 828.17 329.338C825.64 332.22 822.481 343.295 820.929 347.583C816.676 342.132 822.774 331.508 822.037 326.077C821.888 327.381 822.003 327.393 821.161 328.36C816.028 323.967 818.976 321.911 818.287 317.412C819.188 312.974 822.288 306.517 822.786 301.791C822.888 300.819 822.713 301.016 821.859 300.138C818.739 299.51 812.151 297.268 808.859 296.255C806.235 295.631 804.47 295.28 801.961 294.192L802.109 293.446C800.435 292.593 796.146 290.641 795.092 289.419C795.572 288.53 796.167 287.767 796.802 286.982C793.092 284.26 777.171 277.082 771.787 275.899C768.137 275.098 759.909 272.81 757.098 271.19C756.812 270.075 757.885 267.649 758.334 266.304C755.518 263.832 751.15 262.835 748.271 260.644L748.552 260.1Z"/><path fill="#D97BFE" d="M832.102 371.812C832.31 370.849 832.449 369.835 832.857 368.97C833.986 386.833 832.071 406.27 833.735 424.434C834.204 429.56 831.233 435.728 832.391 440.749C832.437 439.435 832.52 438.123 832.639 436.814L833.218 436.608C834.608 447.2 832.476 455.336 832.263 465.84C831.675 494.926 833.512 524.255 831.363 553.253C831.088 556.964 831.615 560.906 831.508 564.636C830.971 572.305 830.792 579.744 830.808 587.444C830.819 592.694 831.117 598.171 829.548 603.2C829.362 581.911 830.088 559.38 830.33 537.989L831.909 385.183C832.03 380.727 832.095 376.269 832.102 371.812Z"/><path fill="#D97BFE" d="M808.859 296.255C811.961 295.298 820.271 297.499 821.859 300.138C818.739 299.51 812.151 297.268 808.859 296.255Z"/><path fill="#701AC5" d="M791.008 469.6L791.733 469.242L792.763 469.691C793.591 467.916 792.076 462.34 792.566 460.363C794.117 454.1 799.711 446.887 803.822 442.019C802.93 444.344 802.653 444.809 801.239 446.868C803.712 451.012 807.148 455.087 807.434 459.745C805.979 463.186 804.033 460.884 801.82 463.622C798.677 473.607 818.504 497.348 819.922 507.439C820.32 510.271 819.896 514.731 820.414 516.85C820.565 515.192 821.316 505.567 821.901 504.797C823.856 507.028 822.074 517.942 822.378 521.278C822.578 523.47 822.851 524.638 823.337 526.817C819.77 521.26 818.139 516.122 815.137 511.277C806.847 497.898 798.292 483.571 791.008 469.6Z"/><path fill="#8828D0" d="M798.831 425.723C799.497 422.532 801.978 415.272 803.154 412.281C803.049 414.453 802.839 415.391 802.242 417.494L802.445 418.208C803.57 418.372 804.228 418.399 805.198 419.011C805.893 420.651 805.631 420.839 806.866 421.576C814.784 420.914 817.003 412.232 825.682 413.38L826.476 414.066C826.312 415.952 824.533 417.395 823.102 418.627C817.375 424.733 809.045 435.225 803.822 442.019C799.711 446.887 794.117 454.1 792.566 460.363C792.076 462.34 793.591 467.916 792.763 469.691L791.733 469.242L791.008 469.6C788.861 467.29 788.334 466.58 787.359 463.602C787.568 462.181 790.743 451.702 791.387 449.772C793.825 442.465 796.086 432.692 798.831 425.723Z"/><path fill="#701AC5" d="M798.831 425.723C799.497 422.532 801.978 415.272 803.154 412.281C803.049 414.453 802.839 415.391 802.242 417.494L802.445 418.208C803.57 418.372 804.228 418.399 805.198 419.011C805.893 420.651 805.631 420.839 806.866 421.576C814.784 420.914 817.003 412.232 825.682 413.38L826.476 414.066C826.312 415.952 824.533 417.395 823.102 418.627L820.616 418.656L820.309 418.142C822.633 415.553 825.264 416.343 825.693 414.217C822.62 414.381 819.892 414.885 818.01 417.544C818.421 418.281 818.162 418.016 818.704 418.412C814.38 419.878 802.053 423.698 798.831 425.723Z"/><path fill="#F297FE" d="M820.929 347.583C822.481 343.295 825.64 332.22 828.17 329.338C824.517 342.054 820.255 354.97 816.516 367.697C815.234 372.061 810.87 387.612 809.244 390.928L808.889 390.446C809.689 385.743 812.62 378.544 813.764 373.643C815.119 367.843 815.747 363.341 817.797 357.755C818.79 355.358 820.685 350.044 820.929 347.583Z"/><path fill="#3D0C7C" d="M830.671 322.403L831.264 320.365L831.674 320.46C832.387 324.016 831.968 330.236 832.126 334.097C832.63 346.364 831.699 359.686 832.102 371.812C832.095 376.269 832.03 380.727 831.909 385.183C831.33 387.011 832.074 386.38 831.102 388.162L830.891 387.187C830.258 384.364 831.249 383.314 831.104 380.91C830.503 370.325 831.165 359.941 831.253 349.343C831.314 341.99 830.205 334.245 830.914 326.971C831.145 324.608 831.956 324.951 830.671 322.403Z"/><path fill="#180545" d="M822.933 633.964C824.803 633.751 826.73 634.549 828.276 635.538L828.768 636.958C826.302 636.408 824.94 635.436 822.933 633.964Z"/><path fill="#701AC5" d="M784.912 501.57C788.882 501.672 790.724 502.76 792.408 506.312C793.968 509.601 798.743 505.447 800.145 509.292C798.77 513.049 794.27 514.313 791.351 518.652C789.801 520.594 786.814 520.953 784.578 519.954L786.981 520.225C775.591 517.209 782.617 508.439 784.702 502.218L784.912 501.57Z"/><path fill="#8828D0" d="M788.247 509.026C792.054 508.849 794.648 508.48 798.233 509.743C796.215 511.911 794.745 513.637 792.292 515.357C790.417 516.398 788.831 517.426 786.77 517.997L786.366 517.243C787.91 512.251 785.393 514.443 784.611 511.071C785.573 509.725 786.652 509.577 788.247 509.026Z"/><path fill="#570F9F" d="M789.464 565.377C794.852 567.173 795.224 575.976 795.684 580.819C794.192 582.664 793.066 583.631 791.336 585.217L790.619 585.329C785.911 583.18 785.958 571.913 785.895 567.626C785.998 567.501 789.113 565.594 789.464 565.377Z"/><path fill="#701AC5" d="M787.339 560.062L787.656 560.3C786.101 561.568 780.674 564.15 778.663 565.25C773.135 568.274 767.49 571.224 762.276 574.792L761.767 574.487C762.217 573.838 762.456 573.419 763.098 572.93C765.801 570.874 767.391 566.938 769.408 563.725C771.507 562.62 772.245 562.326 774.509 561.608C780.878 563.303 781.663 562.981 787.339 560.062Z"/><path fill="#B248F1" d="M297.749 390.92C299.076 388.162 333.557 355.687 338.835 350.54C343.719 355.562 348.59 361.383 353.431 366.569C361.683 375.384 370.439 383.714 379.654 391.517C382.318 393.745 386.358 397.372 389.295 398.936L390.006 398.572C391.571 394.822 399.261 378.864 402.814 378.054C387.668 404.826 371.071 431.01 355.995 457.863C353.925 461.55 347.551 473.471 345.29 475.91C337.888 477.742 332.448 469.156 327.779 464.693C324.808 462.757 318.266 453.729 315.625 450.642C303.6 436.584 294.183 420.712 283.844 405.412C286.756 402.528 297.262 393.948 297.749 390.92Z"/><path fill="#D97BFE" d="M334.492 383.897C338.663 384.019 343.168 388.476 346.142 390.988L345.711 391.583C343.378 391.378 335.629 386.112 334.492 383.897Z"/><defs><linearGradient id="gradient_16" gradientUnits="userSpaceOnUse" x1="242.87964" y1="436.14853" x2="304.80289" y2="411.66125"><stop offset="0" stop-color="#6612B7"/><stop offset="1" stop-color="#B141F9"/></linearGradient></defs><path fill="url(#gradient_16)" d="M238.238 368.008C241.789 364.195 246.038 359.536 250.283 356.61C261.721 371.557 271.521 389.978 283.034 405.171C288.042 400.528 292.948 395.776 297.749 390.92C297.262 393.948 286.756 402.528 283.844 405.412C294.183 420.712 303.6 436.584 315.625 450.642C318.266 453.729 324.808 462.757 327.779 464.693C322.559 468.733 317.202 472.559 312.014 476.639C310.756 474.983 310.93 474.626 309.319 474.047C308.885 475.808 309.304 475.751 310.043 477.804C301.637 482.879 293.683 489.154 285.223 494.222C282.595 495.797 281.985 496.732 279.868 498.624C277.08 495.959 266.876 484.493 263.497 484.708C262.128 486.137 262.565 485.729 262.343 488.227C258.758 476.351 253.273 461.868 249.174 450.006L225.523 380.809C228.117 378.857 236.197 370.722 238.238 368.008Z"/><path fill="#8828D0" d="M726.056 411.738C735.052 420.882 742.479 427.774 752.617 435.718C755.584 438.043 763.898 443.718 765.781 445.608C765.75 455.423 729.729 501.49 722.335 511.527C719.86 514.888 718.771 514.465 717.743 519.316L717.589 520.095L716.741 520.766C712.135 519.348 706.505 512.229 702.16 513.555C701.35 512.627 695.179 501.862 694.112 500.032L673.559 464.64C674.483 464.558 676.566 464.372 677.207 463.88C693.24 451.597 713.052 426.627 726.056 411.738Z"/><defs><linearGradient id="gradient_17" gradientUnits="userSpaceOnUse" x1="771.01733" y1="549.56921" x2="729.99622" y2="467.17081"><stop offset="0" stop-color="#4C0F8E"/><stop offset="1" stop-color="#7419C3"/></linearGradient></defs><path fill="url(#gradient_17)" d="M765.781 445.608C767.616 447.479 769.437 449.658 771.721 450.808L772.705 450.652C773.364 449.637 773.989 448.635 774.703 447.658L775.304 447.539C771.83 461.024 765.457 478.254 761.02 491.839L735.484 570.087C731.939 565.413 727.831 558.061 724.659 552.788C716.861 539.884 709.359 526.803 702.16 513.555C706.505 512.229 712.135 519.348 716.741 520.766L717.589 520.095L717.743 519.316C718.771 514.465 719.86 514.888 722.335 511.527C729.729 501.49 765.75 455.423 765.781 445.608Z"/><path fill="#701AC5" d="M327.779 464.693C332.448 469.156 337.888 477.742 345.29 475.91L327.596 506.59C326.525 508.463 320.346 519.521 319.258 520.65C315.943 521.217 314.3 531.12 310.861 531.194C303.64 525.574 286.19 506.025 279.868 498.624C281.985 496.732 282.595 495.797 285.223 494.222C293.683 489.154 301.637 482.879 310.043 477.804C309.304 475.751 308.885 475.808 309.319 474.047C310.93 474.626 310.756 474.983 312.014 476.639C317.202 472.559 322.559 468.733 327.779 464.693Z"/><path fill="#570F9F" d="M262.343 488.227C262.565 485.729 262.128 486.137 263.497 484.708C266.876 484.493 277.08 495.959 279.868 498.624C286.19 506.025 303.64 525.574 310.861 531.194C314.3 531.12 315.943 521.217 319.258 520.65C318.086 523.086 316.368 526.033 314.957 528.385C306.908 541.802 299.657 556.167 291.264 569.339C281.142 543.481 271.78 514.693 262.343 488.227Z"/><path fill="#D97BFE" d="M289.416 255.768C305.183 250.978 321.028 246.444 336.942 242.168C346.77 239.444 358.758 235.807 368.544 233.721C369.325 234.068 370.11 234.406 370.899 234.736L370.688 234.806L370.046 234.317L370.763 235.228C368.448 236.157 366.196 235.976 363.836 236.653C350.7 240.415 337.567 243.909 324.458 247.799C312.818 251.253 300.757 254.04 289.347 258.262C290.035 261.419 293.905 263.934 296.964 262.75C304.5 259.835 312.28 258.228 320.111 256.052L344.301 249.286C352.545 246.963 363.681 244.635 370.986 242.365L371.6 242.707C360.137 245.215 348.086 249.138 336.697 252.18C313.893 258.27 291.63 265.026 269.406 272.992C265.811 274.28 258.465 272.793 255.869 275.944C254.765 277.722 252.398 281.619 252.614 283.905C253.582 284.249 253.114 284.276 253.944 283.926C256.901 282.677 282.248 275.265 283.694 275.962C283.771 275.999 283.81 276.087 283.869 276.149C279.347 278.668 260.399 282.137 257.699 283.862C249.242 285.659 241.29 288.294 232.969 290.179L232.905 289.466C237.947 288.204 248.467 286.602 245.028 279.386C241.754 277.4 240.374 280.785 237.019 281.01C242.088 275.451 277.389 270.916 282.639 266.043C279.405 264.126 281.261 265.157 278.888 261.518C274.944 259.941 275.033 262.442 270.777 262.807C272.014 261.721 274.655 260.842 276.274 260.191C280.279 258.493 285.209 257.087 289.416 255.768Z"/><path fill="#D97BFE" d="M678.474 240.939C694.766 243.683 715.854 252.041 731.888 255.264C733.03 255.046 734.17 254.813 735.307 254.563L736.039 253.118C740.1 255.468 744.359 258.046 748.552 260.1L748.271 260.644C751.15 262.835 755.518 263.832 758.334 266.304C757.885 267.649 756.812 270.075 757.098 271.19C759.909 272.81 768.137 275.098 771.787 275.899C777.171 277.082 793.092 284.26 796.802 286.982C796.167 287.767 795.572 288.53 795.092 289.419C796.146 290.641 800.435 292.593 802.109 293.446L801.961 294.192C798.588 293.289 788.429 290.665 785.638 289.164C787.276 288.02 791.516 291.263 794.246 290.878C792.002 290.401 788.833 288.533 785.773 288.278C785.09 288.222 780.166 286.276 779.137 285.931C778.82 283.784 778.625 281.437 778.401 279.264L779.128 279.07C770.988 276.53 678.334 250.281 676.481 250.398C682.843 250.943 688.146 252.728 694.289 254.328C707.517 257.774 720.228 262.582 733.581 265.641C737.641 266.571 742.804 268.279 746.86 268.613C747.562 267.063 747.796 266.6 748.204 264.891L747.188 264.743L746.754 263.978C747.285 262.9 747.324 262.924 748.171 262.095C744.585 259.076 685.782 243.499 678.876 241.834L678.474 240.939Z"/><path fill="#3D0C7C" d="M731.888 255.264C733.03 255.046 734.17 254.813 735.307 254.563L736.039 253.118C740.1 255.468 744.359 258.046 748.552 260.1L748.271 260.644C742.776 258.956 737.314 257.162 731.888 255.264Z"/><path fill="#B248F1" d="M499.927 176.377C499.999 182.195 500.721 196.065 498.997 200.809C496.001 203.109 471.221 209.061 466.863 209.7C468.314 207.742 472.814 207.008 476.202 204.858C482.598 200.797 487.226 197.467 492.932 192.718C500.687 186.264 498.974 185.829 499.927 176.377Z"/><path fill="#D97BFE" d="M818.287 317.412C818.976 321.911 816.028 323.967 821.161 328.36C822.003 327.393 821.888 327.381 822.037 326.077C822.774 331.508 816.676 342.132 820.929 347.583C820.685 350.044 818.79 355.358 817.797 357.755L817.971 356.509C816.529 354.126 816.369 352.703 816.043 349.971L815.372 350.018C812.764 356.186 809.983 368.526 807.789 372.939L807.553 372.517C809.283 367.459 809.935 362.259 811.104 357.061C812.426 351.187 814.192 345.473 815.073 339.503C815.157 338.936 815.835 338.421 816.256 338.06L816.966 339.248C817.991 338.018 817.675 338.719 817.822 337.024C816.77 334.858 816.48 332.404 814.867 331.124L814.385 331.406C815.237 332.57 815.537 332.729 815.941 334.073L814.723 335.073C814.569 334.868 814.415 334.662 814.261 334.457L813.726 333.713C813.031 336.094 812.547 337.786 811.608 340.109L810.77 340.447C811.314 337.018 817.019 321.088 818.287 317.412Z"/><path fill="#D97BFE" d="M765.741 615.863L765.287 615.553C760.722 612.477 746.75 605.917 745.702 601.794C750.712 598.876 762.561 608.399 767.8 610.265C768.868 610.646 776.189 615.324 777.122 616.144L775.976 616.58C772.416 614.727 770.425 613.146 766.52 613.577C767.4 616.956 782.142 623.59 785.309 626.73C779.808 624.673 768.941 616.684 765.741 615.863Z"/><path fill="#D97BFE" d="M771.468 604.675C777.716 607.874 794.9 617.559 800.532 621.378L800.383 622.029C796.126 620.348 794.589 621.647 790.609 623.715L791.848 624.455L791.626 624.823C787.092 622.948 780.444 619.036 775.976 616.58L777.122 616.144C781.312 617.703 783.098 620.939 788.031 617.507C788.744 617.011 789.318 617.231 790.242 617.242L790.776 616.718C786.314 613.817 774.092 608.102 771.468 604.675Z"/><defs><linearGradient id="gradient_18" gradientUnits="userSpaceOnUse" x1="509.62839" y1="614.32172" x2="548.73346" y2="240.341"><stop offset="0" stop-color="#6B19B3"/><stop offset="1" stop-color="#9E34E9"/></linearGradient></defs><path fill="url(#gradient_18)" d="M343.703 522.449C344.28 520.831 353.35 505.405 354.641 503.174L382.477 455.214L481.488 284.203C485.554 277.184 505.835 239.121 510.274 236.5C510.785 236.198 511.193 235.916 511.792 236.146C513.521 236.81 515.023 238.95 516.041 240.414C520.436 246.733 523.993 254.072 527.851 260.77C534.788 272.591 541.617 284.475 548.336 296.422C559.118 314.91 569.757 333.48 580.251 352.133C583.56 357.991 590.909 369.998 593.358 375.348C600.416 386.357 606.98 398.946 613.656 410.331L658.082 485.713L698.342 553.476C704.68 564.073 711.134 574.6 717.46 585.201C718.312 586.855 719.317 588.842 718.701 590.732C716.813 596.521 712.463 596.054 707.462 596.072C636.526 596.323 565.585 595.58 494.653 595.481L420.781 595.449C412.248 595.439 392.609 595.942 385.099 595.206C360.428 594.407 333.867 595.906 309.403 594.835C307.502 592.876 306.758 591.497 305.353 589.21C307.724 583.589 316.977 568.243 320.472 562.468C328.391 549.385 335.858 535.405 343.703 522.449Z"/><path fill="#B248F1" d="M489.598 351.666C488.331 350.889 476.31 341.423 476.218 340.86C474.872 332.681 477.864 325.466 472.82 317.914C472.924 316.099 472.636 316.903 473.757 315.431L473.167 314.57C480.401 302.026 482.501 302.991 493.988 295.591C498.127 292.924 501.955 286.302 507.528 283.579C513.593 280.616 515.247 281.274 521.119 280.091L521.407 280.549C520.632 282.941 517.447 286.242 515.96 289.296C518.361 290.805 542.408 298.023 545.884 298.152C546.982 297.002 546.881 297.03 548.336 296.422C559.118 314.91 569.757 333.48 580.251 352.133C583.56 357.991 590.909 369.998 593.358 375.348C590.712 374.03 590.65 370.424 587.98 368.859C585.31 372.493 589.294 382.408 589.503 386.477C589.712 390.547 589.843 392.581 590.607 396.619C586.899 395.877 576.796 382.975 572.012 380.938L570.268 382.865L569.807 382.494C570.607 381.541 570.397 381.94 570.794 380.751C556.598 365.69 542.261 352.173 527.709 337.572C522.224 343.062 516.709 348.57 511.309 354.139C507.579 357.985 504.624 361.825 500.615 365.435C499.189 362.634 492.614 352.87 489.598 351.666Z"/><path fill="#B248F1" d="M489.598 351.666C492.614 352.87 499.189 362.634 500.615 365.435C497.911 368.619 482.504 382.955 479.128 384.36C480.299 382.548 480.337 383.08 480.317 381.262C478.83 378.915 477.605 379.779 475.506 377.753L476.212 377.254L476.271 376.471C475.427 375.15 474.028 371.823 474.292 370.434C474.828 367.624 471.798 364.957 472.783 362.659C477.442 351.788 489.702 366.897 493.215 357.392C493.769 355.894 490.607 353.061 489.598 351.666Z"/><path fill="#3D0C7C" d="M343.703 522.449C343.968 526.081 331.854 545.786 329.19 549.922C328.521 550.96 329.083 550.231 328.809 551.603C328.225 554.85 326.103 555.317 324.721 559.163L325.175 559.592C325.888 560.276 327.254 561.306 327.177 562.345C326.712 568.698 325.203 572.171 321.961 577.581C320.493 580.029 315.867 582.522 313.414 583.766C312.127 583.316 312.462 583.523 311.362 582.764C296.562 599.195 328.953 592.479 336 593.592C341.132 594.402 385.485 594.31 385.876 594.912L385.099 595.206C360.428 594.407 333.867 595.906 309.403 594.835C307.502 592.876 306.758 591.497 305.353 589.21C307.724 583.589 316.977 568.243 320.472 562.468C328.391 549.385 335.858 535.405 343.703 522.449Z"/><path fill="#FCD1FE" d="M563.953 411.209C598.141 410.701 614.872 439.692 617.605 470.409C619.943 496.69 616.365 529.991 591.262 544.768C584.075 548.999 577.575 550.118 569.424 550.961C533.052 551.442 517.304 521.858 514.972 489.255C512.397 453.245 521.872 414.194 563.953 411.209Z"/><path fill="#8828D0" d="M565.992 436.714C579.393 437.318 585.328 449.874 587.443 461.692C590.403 478.225 590.552 500.552 581.382 515.314C577.903 520.915 573.169 522.875 567.073 524.058C550.497 521.998 545.508 506.916 544.307 492.268C542.857 474.585 541.814 438.789 565.992 436.714Z"/><path fill="#FCD1FE" d="M454.272 412.203C477.646 410.298 500.647 423.037 503.584 447.851C506.997 476.675 486.03 491.618 463.056 503.56C455.705 507.381 445.608 512.739 440.469 519.347L440.024 519.931L503.022 520.048L503.05 548.042L428.25 548.011L406.066 547.996C405.973 541.794 406.236 536.557 406.409 530.646C407.17 504.607 426.678 491.51 447.643 480.19C454.908 476.289 461.565 472.793 468.004 467.514C475.377 461.469 477.955 450.194 471.181 442.713C464.905 435.78 450.553 436.344 444.199 443.165C438.946 448.805 438.397 455.005 438.319 462.288C428.343 462.239 418.367 462.274 408.392 462.391C408.669 433.825 425.669 414.659 454.272 412.203Z"/><path fill="#B248F1" d="M505.247 564.685L505.674 564.437C510.717 565.287 533.92 580.04 540.285 583.207C546.849 586.474 557.822 586.759 561.409 588.473C560.991 589.388 557.135 588.534 556.354 589.267C553.453 592.154 551.198 592.592 546.961 591.994C527.966 589.313 508.561 585.306 489.486 583.53C488.589 583.182 480.343 582.071 479.12 581.911C471.213 580.873 464.209 580.351 456.297 581.111C449.593 581.755 439.253 584.712 433.042 583.813C433.555 583.199 439.886 583.892 441.955 582.773C442.257 582.609 453.247 580.539 453.825 580.518C458.727 580.338 459.893 577.815 464.004 577.156C467.039 576.67 471.61 577.201 474.803 576.875C488.88 576.504 494.516 574.233 505.737 565.992L505.381 565.559C503.409 565.917 502.936 566.074 500.979 565.916L500.809 565.264C501.959 564.477 503.74 564.7 505.247 564.685Z"/><path fill="#570F9F" d="M684.076 561.25C685.032 561.512 684.784 561.474 685.646 562.066C686.665 565.197 687.845 568.558 687.576 571.879C686.595 571.039 686.745 570.245 686.389 568.649L685.711 568.193C683.438 568.047 683.673 568.109 681.57 569.079C681.374 567.648 681.176 566.853 681.856 565.549L684.076 561.25Z"/><path fill="#C45DFB" d="M313.971 617.788L314.133 616.812C316.026 615.359 348.287 616.145 352.88 616.184L422.506 616.527C429.132 616.348 435.682 616.475 442.308 616.562C468.687 616.521 495.066 616.637 521.444 616.91L549.812 616.904C553.658 616.902 561.307 616.686 564.792 617.042L646.81 616.957C667.267 616.959 688.592 616.656 708.942 617.048C705.671 622.36 696.868 630.684 692.2 635.386L667.408 660.482C652.738 675.582 637.974 690.591 623.118 705.508C617.953 710.701 608.573 720.808 603.436 725.257C594.816 734.536 515.068 815.919 511.342 817.102C502.489 812.895 485.932 791.684 477.569 784.741C475.72 783.206 463.501 770.558 462.43 768.881C458.126 764.646 451.773 758.599 447.981 754.095C446.145 753.085 435.519 741.641 433.617 739.598C432.507 738.728 424.786 730.566 423.418 729.163L399.269 704.388C371.604 675.989 342.278 645.33 313.971 617.788Z"/><defs><linearGradient id="gradient_19" gradientUnits="userSpaceOnUse" x1="621.65442" y1="705.96124" x2="565.8089" y2="638.89172"><stop offset="0" stop-color="#6813B2"/><stop offset="1" stop-color="#B342F5"/></linearGradient></defs><path fill="url(#gradient_19)" d="M564.792 617.042L646.81 616.957C667.267 616.959 688.592 616.656 708.942 617.048C705.671 622.36 696.868 630.684 692.2 635.386L667.408 660.482C652.738 675.582 637.974 690.591 623.118 705.508C617.953 710.701 608.573 720.808 603.436 725.257C594.816 734.536 515.068 815.919 511.342 817.102C502.489 812.895 485.932 791.684 477.569 784.741C475.72 783.206 463.501 770.558 462.43 768.881C458.126 764.646 451.773 758.599 447.981 754.095C446.145 753.085 435.519 741.641 433.617 739.598C440.118 739.266 444.781 741.687 450.571 744.296C452.265 739.638 478.204 733.105 479.826 730.292C478.891 729.437 478.725 729.44 477.568 728.881L477.896 728.169L481.946 730.276C510.534 718.481 540.052 704.129 568.407 691.42C576.867 687.899 644.632 655.217 648.678 650.949C647.981 651.043 633.098 658.847 631.211 659.774C629.633 659.145 628.37 657.427 627.184 656.098C624.945 656.287 604.169 653.397 602.331 652.201L602.532 651.72C606.862 651.588 615.314 655.856 618.776 652.151C619.099 650.9 619.348 649.304 620.331 648.569C623.351 646.313 630.044 647.345 633.527 647.594L634.547 646.552C628.265 646.614 616.094 646.657 610.44 644.541L610.387 643.492C611.691 641.061 613.125 639.848 615.061 637.934C615.536 635.56 615.35 633.667 615.278 631.254C606.721 627.736 598.363 620.69 590.411 617.993C584.838 616.103 571.324 619.414 564.792 617.042Z"/><defs><linearGradient id="gradient_20" gradientUnits="userSpaceOnUse" x1="515.409" y1="815.8584" x2="523.03967" y2="711.33405"><stop offset="0" stop-color="#380B77"/><stop offset="1" stop-color="#6E14BA"/></linearGradient></defs><path fill="url(#gradient_20)" d="M527.413 751.936C527.757 751.976 529.552 752.138 529.717 752.044C534.23 749.492 538.809 746.875 543.526 744.716C561.944 736.286 580.155 727.114 599.414 720.726C602.806 719.6 606.301 718.101 609.62 716.731C607.058 719.456 604.867 721.773 602.542 724.696L603.436 725.257C594.816 734.536 515.068 815.919 511.342 817.102C502.489 812.895 485.932 791.684 477.569 784.741C475.72 783.206 463.501 770.558 462.43 768.881C458.126 764.646 451.773 758.599 447.981 754.095C446.145 753.085 435.519 741.641 433.617 739.598C440.118 739.266 444.781 741.687 450.571 744.296C452.265 739.638 478.204 733.105 479.826 730.292C478.891 729.437 478.725 729.44 477.568 728.881L477.896 728.169L481.946 730.276C486.052 730.58 520.486 749.076 527.413 751.936Z"/><path fill="#701AC5" d="M477.896 728.169L481.946 730.276C486.052 730.58 520.486 749.076 527.413 751.936C519.369 758.556 508.682 761.941 499.412 767.441C491.768 764.667 456.904 749.135 450.571 744.296C452.265 739.638 478.204 733.105 479.826 730.292C478.891 729.437 478.725 729.44 477.568 728.881L477.896 728.169Z"/><path fill="#3D0C7C" d="M447.981 754.095C451.046 755.154 462.345 765.467 462.43 768.881C458.126 764.646 451.773 758.599 447.981 754.095Z"/><defs><linearGradient id="gradient_21" gradientUnits="userSpaceOnUse" x1="362.92596" y1="695.10236" x2="453.63678" y2="639.08081"><stop offset="0" stop-color="#5E10AB"/><stop offset="1" stop-color="#BE47FF"/></linearGradient></defs><path fill="url(#gradient_21)" d="M313.971 617.788L314.133 616.812C316.026 615.359 348.287 616.145 352.88 616.184L422.506 616.527C429.132 616.348 435.682 616.475 442.308 616.562L446.219 617.293C444.972 617.885 439.838 617.562 437.281 618.434C429.042 621.246 421.689 623.765 413.159 625.577C404.185 627.483 393.173 627.01 384.798 630.051L382.349 629.052L382.139 629.401C384.754 631.266 390.113 634.863 392.197 636.96C392.382 640.192 390.728 648.339 389.224 651.232C388.899 651.858 385.98 653.76 385.089 654.356C383.217 653.235 370.366 646.015 369.186 646.158C373.855 649.185 386.525 656.235 391.494 658.161C400.163 663.004 405.875 666.849 413.992 672.611C424.638 677.82 430.417 685.966 438.348 693.835C433.99 694.934 425.414 696.772 421.904 699.019C434.458 706.965 451.328 713.429 464.571 720.873C467.704 722.634 475.345 726.196 477.896 728.169L477.568 728.881C478.725 729.44 478.891 729.437 479.826 730.292C478.204 733.105 452.265 739.638 450.571 744.296C444.781 741.687 440.118 739.266 433.617 739.598C432.507 738.728 424.786 730.566 423.418 729.163L399.269 704.388C371.604 675.989 342.278 645.33 313.971 617.788Z"/><path fill="#B248F1" d="M413.992 672.611C424.638 677.82 430.417 685.966 438.348 693.835C433.99 694.934 425.414 696.772 421.904 699.019C417.398 696.916 383.571 678.81 381.572 676.714C385.673 677.537 392.185 683.851 397.295 684.87C405.556 686.517 409.829 674.752 416.339 674.82C415.413 674.349 415.301 674.161 414.641 673.386L413.992 672.611Z"/><path fill="#701AC5" d="M313.971 617.788L314.133 616.812C316.026 615.359 348.287 616.145 352.88 616.184L422.506 616.527C415.938 617.72 343.158 619.51 340.276 618.43L340.295 618.014L346.208 617.932L346.21 617.705C341.543 616.873 317.637 616.302 313.971 617.788Z"/><defs><linearGradient id="gradient_22" gradientUnits="userSpaceOnUse" x1="491.62726" y1="669.87634" x2="498.36835" y2="727.0708"><stop offset="0" stop-color="#9B31EA"/><stop offset="1" stop-color="#CA5DFE"/></linearGradient></defs><path fill="url(#gradient_22)" d="M438.348 693.835C464 684.612 491.58 677.246 517.716 669.383C523.184 667.738 529.538 665.16 534.954 664.147C546.206 672.017 558.171 682.318 568.407 691.42C540.052 704.129 510.534 718.481 481.946 730.276L477.896 728.169C475.345 726.196 467.704 722.634 464.571 720.873C451.328 713.429 434.458 706.965 421.904 699.019C425.414 696.772 433.99 694.934 438.348 693.835Z"/><path fill="#B248F1" d="M385.089 654.356C385.98 653.76 388.899 651.858 389.224 651.232C390.728 648.339 392.382 640.192 392.197 636.96C390.113 634.863 384.754 631.266 382.139 629.401L382.349 629.052L384.798 630.051C387.145 631.847 390.846 634.793 393.473 635.907C404.395 640.542 420.071 636.642 431.454 637.863C422.012 638.284 412.364 639.12 402.91 639.045C400.343 639.025 394.881 637.19 393.397 638.016C393.278 643.169 389.804 654.558 391.494 658.161C386.525 656.235 373.855 649.185 369.186 646.158C370.366 646.015 383.217 653.235 385.089 654.356Z"/><path fill="#570F9F" d="M840.155 630.269C841.528 633.222 842.169 652.26 841.296 656.423L840.261 656.335C839.196 653.268 840.03 634.763 840.155 630.269Z"/><path fill="#8828D0" fill-opacity="0.14901961" d="M863.657 301.151L864.381 301.519C864.78 300.277 864.784 300.316 864.806 299.016C865.591 302.122 867.576 301.087 867.886 302.349C870.892 314.61 869.385 329.658 869.422 341.996L869.834 373.749L869.808 517.062C869.713 530.613 870.67 544.922 870.278 558.483C869.423 588.032 871.115 617.478 869.742 647.004C869.44 653.504 870.687 663.618 868.059 669.398C866.136 673.629 864.12 678.991 860.291 681.587C855.308 685.271 850.609 689.241 845.461 692.77C825.272 706.608 804.178 717.667 783.27 730.086L695.681 782.102C680.913 790.68 666.455 799.359 651.729 808.093C641.667 814.062 631.803 820.354 621.744 826.471C614.753 830.724 608.027 834.988 600.73 838.705C582.592 851.165 563.012 861.064 544.963 873.723C539.249 877.73 527.536 883.308 520.472 885.067C507.955 888.183 506.486 887.779 494.389 882.327C477.07 874.521 461.744 863.807 445.562 853.892L371.737 809.213L254.592 738.906C225.843 721.841 196.511 705.473 168.919 686.473C164.799 683.636 164.308 683.17 161.044 679.494C156.946 674.878 156.498 671.074 159.109 664.446L159.742 665.816C160.246 664.86 160.133 665.279 160.256 664.62C162.111 669.938 163.308 671.075 167.993 674.244L165.79 674.252L165.423 675.028C168.446 681.801 187.344 691.411 194.315 695.357C196.482 696.583 199.143 698.658 201.373 699.507C202.145 699.797 202.923 700.07 203.706 700.329C210.328 705.59 217.116 707.611 223.127 712.337C229.91 717.668 235.631 720.863 243.332 724.73C252.84 730.886 263.977 736.252 272.634 743.412C274.181 744.691 280.411 746.071 282.302 747.776C289.738 751.452 310.455 767.363 316.687 769.372C325.304 773.64 331.626 779.644 339.818 783.983C347.449 786.844 352.227 791.65 359.629 795.421C364.103 798.034 368.637 800.417 373.324 802.621C374.71 803.273 375.949 805.81 377.127 806.367C385.52 810.342 393.249 815.401 401.423 819.832C407.769 823.611 413.765 827.963 419.857 832.131C421.385 833.437 427.316 835.281 428.294 836.308C431.705 839.885 435.094 841.569 439.491 843.762C446.208 847.112 456.599 855.21 463.439 856.893C465.233 858.856 467.046 858.994 468.368 860.498C472.505 864.21 502.36 881.396 505.981 881.181C511.14 881.902 518.15 881.53 522.893 879.328C539.134 871.787 553.66 860.999 568.882 851.822L703.479 771.177L786.337 722.151C792.556 718.505 823.257 701.657 827.501 697.721C827.577 697.41 828.076 695.248 828.409 694.996C833.875 690.862 859.822 680.294 857.784 672.408C860.78 669.927 861.445 668.858 862.679 665.17L862.923 665.536C863.961 665.919 863.858 666.031 864.626 666.844L865.258 666.766C865.608 665.832 865.201 663.781 865.507 662.861C868.344 654.333 867.809 644.619 868.78 635.721C869.105 632.74 868.46 628.859 868.566 625.793C869 613.221 868.006 600.744 867.988 588.187C868.166 573.051 868.496 557.883 868.379 542.748C868.318 534.777 868.559 528.394 867.867 520.341L866.753 519.418C867.824 516.536 867.615 507.554 867.929 503.756C868.525 502.346 867.716 492.944 867.881 490.166C868.163 485.406 868.397 480.176 868.692 475.354C868.816 473.307 867.738 470.155 867.816 467.874C869.002 426.696 868.905 385.491 867.524 344.319C867.342 337.034 869.327 326.48 868.76 318.844C868.637 317.196 866.393 303.872 865.287 302.89C864.918 303.518 865.093 303.136 864.869 304.21L864.685 305.129L864.24 305.402L864.554 305.227L864.644 304.523L863.806 304.05C863.87 303.581 863.756 303.201 863.681 302.702L863.657 301.151Z"/><path fill="#8828D0" fill-opacity="0.34901962" d="M857.784 672.408C859.822 680.294 833.875 690.862 828.409 694.996C828.076 695.248 827.577 697.41 827.501 697.721C823.257 701.657 792.556 718.505 786.337 722.151L703.479 771.177L568.882 851.822C553.66 860.999 539.134 871.787 522.893 879.328C518.15 881.53 511.14 881.902 505.981 881.181C505.987 880.742 506.154 879.934 506.232 879.468C507.151 878.318 509.222 878.052 510.775 877.66C514.194 877.15 516.244 876.924 519.312 875.169C537.3 864.881 554.841 853.827 572.539 843.052L653.659 794.364L796.7 708.779C817.136 696.782 837.498 684.658 857.784 672.408Z"/><defs><linearGradient id="gradient_23" gradientUnits="userSpaceOnUse" x1="866.75214" y1="402.74649" x2="864.48157" y2="402.75446"><stop offset="0" stop-color="#9E3DDE" stop-opacity="0.15294118"/><stop offset="1" stop-color="#9D38DF" stop-opacity="0.1882353"/></linearGradient></defs><path fill="url(#gradient_23)" d="M863.681 302.702C863.756 303.201 863.87 303.581 863.806 304.05L864.644 304.523L864.554 305.227L864.24 305.402L864.685 305.129L864.869 304.21C865.093 303.136 864.918 303.518 865.287 302.89C866.393 303.872 868.637 317.196 868.76 318.844C869.327 326.48 867.342 337.034 867.524 344.319C868.905 385.491 869.002 426.696 867.816 467.874C867.738 470.155 868.816 473.307 868.692 475.354C868.397 480.176 868.163 485.406 867.881 490.166C867.716 492.944 868.525 502.346 867.929 503.756L865.59 503.805C865.116 498.061 865.374 488.846 865.429 482.995C865.556 479.444 865.603 476.71 865.441 473.17C865.758 470.703 865.552 427.72 865.211 426.611C864.94 428.804 864.854 429.702 864.004 431.715C863.322 419.908 863.876 400.897 863.86 388.566L863.681 302.702ZM866.83 327.827C866.804 324.734 867.445 315.702 865.245 313.844C865.196 317.77 864.92 324.352 865.416 328.045L865.944 328.58L866.83 327.827Z"/><path fill="#B248F1" fill-opacity="0.16470589" d="M865.245 313.844C867.445 315.702 866.804 324.734 866.83 327.827L865.944 328.58L865.416 328.045C864.92 324.352 865.196 317.77 865.245 313.844Z"/><path fill="#8828D0" fill-opacity="0.33725491" d="M202.632 694.589C209.502 698.022 217.133 703.071 223.775 707.122C251.72 724.166 280.203 740.755 307.887 758.206L305.535 760.287C308.128 761.477 315.587 767.007 316.687 769.372C310.455 767.363 289.738 751.452 282.302 747.776C280.411 746.071 274.181 744.691 272.634 743.412C263.977 736.252 252.84 730.886 243.332 724.73C235.631 720.863 229.91 717.668 223.127 712.337C217.116 707.611 210.328 705.59 203.706 700.329C202.059 698.392 202.119 697.811 201.542 695.219L202.632 694.589Z"/><defs><linearGradient id="gradient_24" gradientUnits="userSpaceOnUse" x1="867.16248" y1="592.4801" x2="863.36511" y2="592.51508"><stop offset="0" stop-color="#9C3DDB" stop-opacity="0.14509805"/><stop offset="1" stop-color="#9A34DD" stop-opacity="0.21568628"/></linearGradient></defs><path fill="url(#gradient_24)" d="M863.975 519.451L864.51 519.277C864.542 521.91 864.619 524.541 864.74 527.171C865.115 523.537 864.585 521.46 866.753 519.418L867.867 520.341C868.559 528.394 868.318 534.777 868.379 542.748C868.496 557.883 868.166 573.051 867.988 588.187C868.006 600.744 869 613.221 868.566 625.793C868.46 628.859 869.105 632.74 868.78 635.721C867.809 644.619 868.344 654.333 865.507 662.861C865.201 663.781 865.608 665.832 865.258 666.766L864.626 666.844C863.858 666.031 863.961 665.919 862.923 665.536L862.679 665.17C863.627 659.988 863.509 651.94 863.571 646.442L863.783 617.698L863.975 519.451Z"/><path fill="#8828D0" fill-opacity="0.33333334" d="M347.418 782.202C362.581 790.934 377.914 800.345 392.922 809.368C396.481 811.509 413.489 821.193 415.752 823.116C415.7 831.201 423.061 830.034 427.623 833.338C430.152 835.169 431.994 837.525 435.333 839.733C441.481 843.797 458.975 852.131 463.439 856.893C456.599 855.21 446.208 847.112 439.491 843.762C435.094 841.569 431.705 839.885 428.294 836.308C427.316 835.281 421.385 833.437 419.857 832.131C413.765 827.963 407.769 823.611 401.423 819.832C393.249 815.401 385.52 810.342 377.127 806.367C375.949 805.81 374.71 803.273 373.324 802.621C368.637 800.417 364.103 798.034 359.629 795.421C352.227 791.65 347.449 786.844 339.818 783.983C342.54 783.645 345.432 784.635 347.343 783.717L347.418 782.202Z"/><path fill="#8828D0" fill-opacity="0.35294119" d="M415.752 823.116C434.087 833.429 454.896 847.696 472.85 857.179C469.871 860.21 474.467 860.293 468.368 860.498C467.046 858.994 465.233 858.856 463.439 856.893C458.975 852.131 441.481 843.797 435.333 839.733C431.994 837.525 430.152 835.169 427.623 833.338C423.061 830.034 415.7 831.201 415.752 823.116Z"/><defs><linearGradient id="gradient_25" gradientUnits="userSpaceOnUse" x1="486.6286" y1="870.81635" x2="488.8714" y2="866.18365"><stop offset="0" stop-color="#9031D4" stop-opacity="0.3137255"/><stop offset="1" stop-color="#8F2AD1" stop-opacity="0.36470589"/></linearGradient></defs><path fill="url(#gradient_25)" d="M472.85 857.179C481.538 862.492 502.05 876.282 510.775 877.66C509.222 878.052 507.151 878.318 506.232 879.468C506.154 879.934 505.987 880.742 505.981 881.181C502.36 881.396 472.505 864.21 468.368 860.498C474.467 860.293 469.871 860.21 472.85 857.179Z"/><defs><linearGradient id="gradient_26" gradientUnits="userSpaceOnUse" x1="180.34105" y1="688.40399" x2="185.67329" y2="682.07898"><stop offset="0" stop-color="#862DD0" stop-opacity="0.29019609"/><stop offset="1" stop-color="#8422C9" stop-opacity="0.32941177"/></linearGradient></defs><path fill="url(#gradient_26)" d="M203.706 700.329C202.923 700.07 202.145 699.797 201.373 699.507C199.143 698.658 196.482 696.583 194.315 695.357C187.344 691.411 168.446 681.801 165.423 675.028L165.79 674.252L167.993 674.244C173.295 677.107 199.762 691.553 202.632 694.589L201.542 695.219C202.119 697.811 202.059 698.392 203.706 700.329Z"/><path fill="#8828D0" fill-opacity="0.34901962" d="M307.887 758.206C320.844 765.893 334.812 774.061 347.418 782.202L347.343 783.717C345.432 784.635 342.54 783.645 339.818 783.983C331.626 779.644 325.304 773.64 316.687 769.372C315.587 767.007 308.128 761.477 305.535 760.287L307.887 758.206Z"/><path fill="#B248F1" fill-opacity="0.2" d="M864.004 431.715C864.854 429.702 864.94 428.804 865.211 426.611C865.552 427.72 865.758 470.703 865.441 473.17C864.424 476.138 864.859 479.711 864.973 482.935C865.054 484.908 865.55 487.939 864.744 489.376L864.028 489.539C863.874 486.561 863.905 483.229 863.945 480.234C864.16 464.126 863.509 447.802 864.004 431.715Z"/><path fill="#B248F1" fill-opacity="0.16078432" d="M865.59 503.805L867.929 503.756C867.615 507.554 867.824 516.536 866.753 519.418C864.585 521.46 865.115 523.537 864.74 527.171C864.619 524.541 864.542 521.91 864.51 519.277C864.577 517.66 864.673 517.336 865.011 515.802L865.076 516.264C866.062 511.427 865.865 508.675 865.59 503.805Z"/><path fill="#B248F1" fill-opacity="0.20784314" d="M864.973 482.935L865.429 482.995C865.374 488.846 865.116 498.061 865.59 503.805L863.916 504.979C863.841 499.832 863.878 494.684 864.028 489.539L864.744 489.376C865.55 487.939 865.054 484.908 864.973 482.935Z"/><path fill="#B248F1" fill-opacity="0.19607843" d="M863.916 504.979L865.59 503.805C865.865 508.675 866.062 511.427 865.076 516.264L865.011 515.802C864.673 517.336 864.577 517.66 864.51 519.277L863.975 519.451L863.916 504.979Z"/><path fill="#B248F1" fill-opacity="0.21960784" d="M864.973 482.935C864.859 479.711 864.424 476.138 865.441 473.17C865.603 476.71 865.556 479.444 865.429 482.995L864.973 482.935Z"/></svg>